<svg width="157" height="88" viewBox="0 0 157 88" fill="none" xmlns="http://www.w3.org/2000/svg">
<g id="Vector" filter="url(#filter0_d_7641_857)">
<path d="M146.138 77.3392C146.138 76.3158 146.966 75.4971 148 75.4971V74.0643C146.966 74.0643 146.138 73.2456 146.138 72.2222C146.138 71.1988 146.966 70.3801 148 70.3801V68.9474C146.966 68.9474 146.138 68.1287 146.138 67.1053C146.138 66.0819 146.966 65.2632 148 65.2632V64.4444C137.244 64.4444 128.35 55.848 128.35 45C128.35 34.152 137.037 25.5556 148 25.5556V24.7368C146.966 24.7368 146.138 23.9181 146.138 22.8947C146.138 21.8713 146.966 21.0526 148 21.0526V19.6199C146.966 19.6199 146.138 18.8012 146.138 17.7778C146.138 16.7544 146.966 15.9357 148 15.9357V14.5029C146.966 14.5029 146.138 13.6842 146.138 12.6608C146.138 11.6374 146.966 10.8187 148 10.8187V10L9 10V10.8187C10.0342 10.8187 10.8616 11.6374 10.8616 12.6608C10.8616 13.6842 10.0342 14.5029 9 14.5029V15.9357C10.0342 15.9357 10.8616 16.7544 10.8616 17.7778C10.8616 18.8012 10.0342 19.6199 9 19.6199V21.0526C10.0342 21.0526 10.8616 21.8713 10.8616 22.8947C10.8616 23.9181 10.0342 24.7368 9 24.7368V25.5556C19.756 25.5556 28.6503 34.152 28.6503 45C28.6503 55.848 19.9628 64.4444 9 64.4444V65.2632C10.0342 65.2632 10.8616 66.0819 10.8616 67.1053C10.8616 68.1287 10.0342 68.9474 9 68.9474V70.3801C10.0342 70.3801 10.8616 71.1988 10.8616 72.2222C10.8616 73.2456 10.0342 74.0643 9 74.0643V75.4971C10.0342 75.4971 10.8616 76.3158 10.8616 77.3392C10.8616 78.3626 10.0342 79.1813 9 79.1813V80L147.793 80V79.1813C146.759 79.1813 145.932 78.3626 145.932 77.3392H146.138Z" fill="url(#paint0_linear_7641_857)"/>
</g>
<defs>
<filter id="filter0_d_7641_857" x="0.8" y="0.8" width="155.4" height="86.4" filterUnits="userSpaceOnUse" color-interpolation-filters="sRGB">
<feFlood flood-opacity="0" result="BackgroundImageFix"/>
<feColorMatrix in="SourceAlpha" type="matrix" values="0 0 0 0 0 0 0 0 0 0 0 0 0 0 0 0 0 0 127 0" result="hardAlpha"/>
<feOffset dy="-1"/>
<feGaussianBlur stdDeviation="4.1"/>
<feComposite in2="hardAlpha" operator="out"/>
<feColorMatrix type="matrix" values="0 0 0 0 0 0 0 0 0 0 0 0 0 0 0 0 0 0 0.25 0"/>
<feBlend mode="normal" in2="BackgroundImageFix" result="effect1_dropShadow_7641_857"/>
<feBlend mode="normal" in="SourceGraphic" in2="effect1_dropShadow_7641_857" result="shape"/>
</filter>
<linearGradient id="paint0_linear_7641_857" x1="78.5" y1="10" x2="78.5" y2="80" gradientUnits="userSpaceOnUse">
<stop stop-color="#35E6C6"/>
<stop offset="1" stop-color="#00899C"/>
</linearGradient>
</defs>
</svg>
