<svg width="24" height="24" viewBox="0 0 24 24" fill="none" xmlns="http://www.w3.org/2000/svg">
<path fill-rule="evenodd" clip-rule="evenodd" d="M0 12C0 5.37258 5.37258 0 12 0C18.6244 0.00716485 23.9928 5.37555 24 12C24 18.6274 18.6274 24 12 24C5.37258 24 0 18.6274 0 12ZM12.3333 4.5C13.2538 4.5 14 5.24619 14 6.16667C14 7.08714 13.2538 7.83333 12.3333 7.83333C11.4129 7.83333 10.6667 7.08714 10.6667 6.16667C10.6667 5.24619 11.4129 4.5 12.3333 4.5ZM13.8367 18.7319C13.3475 18.982 12.9582 19.1717 12.6661 19.303C12.3749 19.4343 12.0362 19.5 11.6508 19.5C11.0587 19.5 10.5977 19.3124 10.2695 18.9382C9.94127 18.5641 9.77796 18.0899 9.77796 17.5135C9.77796 17.2895 9.79002 17.0602 9.81416 16.8267C9.8391 16.5933 9.87852 16.3306 9.93242 16.0357L10.5447 13.2342C10.5986 12.9653 10.6452 12.71 10.6822 12.4724C10.7192 12.2327 10.7369 12.0128 10.7369 11.8127C10.7369 11.4562 10.6798 11.2061 10.5664 11.0654C10.4513 10.9247 10.2349 10.8559 9.91231 10.8559C9.75463 10.8559 9.59212 10.8861 9.42558 10.9497C9.26066 11.0154 9.11746 11.0748 9 11.1331L9.16171 10.2702C9.56235 10.0586 9.9461 9.87728 10.3121 9.7272C10.6782 9.57504 11.0241 9.5 11.35 9.5C11.9381 9.5 12.3918 9.68551 12.7112 10.0524C13.029 10.4203 13.1891 10.8986 13.1891 11.4865C13.1891 11.6084 13.1778 11.8231 13.1561 12.1295C13.1344 12.4369 13.0933 12.7173 13.0338 12.9747L12.4248 15.7678C12.3749 15.9919 12.3307 16.2483 12.2904 16.5349C12.251 16.8215 12.2317 17.0404 12.2317 17.1873C12.2317 17.5584 12.2953 17.8116 12.424 17.9461C12.5511 18.0805 12.7739 18.1483 13.0893 18.1483C13.2381 18.1483 13.4047 18.1139 13.5929 18.0472C13.7796 17.9805 13.9147 17.9211 14 17.87L13.8367 18.7319Z" fill="white"/>
</svg>
