<svg width="27" height="24" viewBox="0 0 27 24" fill="none" xmlns="http://www.w3.org/2000/svg">
<path fill-rule="evenodd" clip-rule="evenodd" d="M15.4863 7.81013C15.1804 7.87936 14.8575 7.7963 14.6344 7.59099C14.4175 7.38273 14.3271 7.08845 14.3934 6.80609C14.795 5.28711 15.4466 3.35403 16.1298 2.72327C17.1718 1.75989 18.8625 1.75877 19.906 2.72077C20.9495 3.68278 20.9507 5.24361 19.9087 6.207C19.1235 6.93191 16.554 7.56933 15.4863 7.81013ZM18.2509 3.67951C17.9474 3.60685 17.625 3.6918 17.4087 3.90146C17.0345 4.4971 16.7517 5.13787 16.5685 5.80538C17.291 5.63523 17.9846 5.37392 18.6298 5.02881C18.8569 4.82914 18.9489 4.53153 18.8702 4.25127C18.7915 3.97102 18.5545 3.75216 18.2509 3.67951ZM12.7905 12.4179H6.2472H4.66779C3.79612 12.4165 3.08986 11.7645 3.08837 10.9597V9.29327C3.08937 8.48834 3.79591 7.83604 4.66779 7.83512H12.7905C13.0397 7.83512 13.2418 8.02165 13.2418 8.25174V12.0013C13.2418 12.2314 13.0397 12.4179 12.7905 12.4179ZM15.0468 12.4179C14.7976 12.4179 14.5955 12.2314 14.5955 12.0013V8.25174C14.5955 8.02165 14.7976 7.83512 15.0468 7.83512H22.7183C23.5901 7.83604 24.2967 8.48834 24.2977 9.29327V10.9597C24.2962 11.7645 23.5899 12.4165 22.7183 12.4179H15.0468ZM13.2418 14.0843C13.2418 13.8542 13.0397 13.6677 12.7905 13.6677H5.34468C5.09546 13.6677 4.89342 13.8542 4.89342 14.0843V20.5419C4.89491 21.3466 5.60117 21.9986 6.47283 22H12.7905C13.0397 22 13.2418 21.8135 13.2418 21.5834V14.0843ZM14.5955 14.0843C14.5955 13.8542 14.7976 13.6677 15.0468 13.6677H22.0414C22.2906 13.6677 22.4926 13.8542 22.4926 14.0843V20.5419C22.4911 21.3466 21.7849 21.9986 20.9132 22H15.0468C14.7976 22 14.5955 21.8135 14.5955 21.5834V14.0843ZM13.4412 6.80276C13.0405 5.28878 12.3889 3.35486 11.7075 2.72327C10.6655 1.76035 8.97522 1.7596 7.93221 2.72161C6.88921 3.68361 6.8884 5.24407 7.93041 6.207C8.7138 6.93191 11.2833 7.56932 12.3528 7.81013C12.6587 7.87936 12.9816 7.7963 13.2048 7.59099C13.4212 7.3812 13.5099 7.08547 13.4412 6.80276ZM9.20748 5.02881C8.98935 4.82758 8.90407 4.53419 8.98378 4.25917C9.06348 3.98415 9.29605 3.76928 9.59388 3.6955C9.89171 3.62171 10.2096 3.70022 10.4277 3.90146C10.8023 4.49692 11.0852 5.13774 11.2679 5.80538C10.5454 5.63611 9.85191 5.37474 9.20748 5.02881Z" fill="white"/>
</svg>
