<svg width="16" height="16" viewBox="0 0 16 16" fill="none" xmlns="http://www.w3.org/2000/svg">
<path fill-rule="evenodd" clip-rule="evenodd" d="M13.9594 7.45967C13.9289 7.36489 13.8503 7.29093 13.7501 7.26279C13.65 7.23464 13.5416 7.25606 13.4616 7.31982C13.0945 7.61578 12.687 7.86349 12.2502 8.05625C12.2036 8.07687 12.1494 8.07429 12.1053 8.04935C12.0611 8.02441 12.0329 7.98036 12.0299 7.93174C11.7475 4.42235 9.00974 1.53281 5.3605 0.892578C5.24149 0.874652 5.12228 0.923508 5.05449 1.01798C4.9867 1.11246 4.98254 1.23556 5.04379 1.33396C5.55451 2.18784 5.82271 3.15284 5.82217 4.13452C5.82242 4.80544 5.68966 5.47041 5.4308 6.0948C5.40927 6.14611 5.35942 6.18181 5.30148 6.18739C5.24354 6.19297 5.18714 6.16751 5.15517 6.12135C4.87053 5.70336 4.65092 5.24865 4.5031 4.77123C4.47339 4.67595 4.39512 4.60124 4.29484 4.57247C4.19456 4.5437 4.08574 4.56473 4.00533 4.62843C2.59165 5.74723 1.77548 7.40408 1.77784 9.15027C1.77784 9.25649 1.77784 9.36212 1.78406 9.46715C1.93192 12.6847 4.77268 15.1955 8.1673 15.109C11.5619 15.0225 14.2564 12.3707 14.2219 9.15027C14.2227 8.57755 14.1342 8.00786 13.9594 7.45967ZM7.99992 13.4284C7.3285 13.4256 6.68649 13.1668 6.21838 12.7103C5.75027 12.2538 5.49539 11.638 5.5111 11.0014C5.53438 9.22107 6.67161 7.62438 8.40435 6.93919C8.46946 6.91493 8.54363 6.93468 8.5859 6.98754C8.62817 7.0404 8.62823 7.11346 8.58604 7.16637C8.04422 7.88064 7.93343 8.81085 8.2936 9.62173C8.31499 9.66362 8.35568 9.69371 8.40373 9.70316C8.45191 9.71204 8.50168 9.69893 8.53813 9.66776C8.74987 9.5057 8.90851 9.28974 8.99545 9.04522C9.00788 9.0035 9.0394 8.96928 9.08131 8.95198C9.12295 8.93369 9.17096 8.93369 9.2126 8.95198C10.0522 9.34549 10.5568 10.1822 10.4887 11.068C10.5021 11.6978 10.2442 12.3056 9.77449 12.751C9.30482 13.1964 8.664 13.441 7.99992 13.4284Z" fill="#141D26"/>
</svg>
