<svg width="16" height="16" viewBox="0 0 16 16" fill="none" xmlns="http://www.w3.org/2000/svg">
<path fill-rule="evenodd" clip-rule="evenodd" d="M9.20256 5.02056C8.9974 5.06979 8.78086 5.01073 8.63125 4.86473C8.48581 4.71664 8.42522 4.50737 8.46966 4.30658C8.73898 3.22642 9.17593 1.85178 9.63407 1.40324C10.3328 0.718169 11.4665 0.717373 12.1662 1.40146C12.866 2.08556 12.8668 3.19549 12.168 3.88056C11.6415 4.39605 9.91852 4.84933 9.20256 5.02056ZM11.0564 2.08323C10.8528 2.03156 10.6367 2.09197 10.4916 2.24106C10.2407 2.66463 10.0511 3.12029 9.9282 3.59496C10.4127 3.47397 10.8778 3.28814 11.3105 3.04273C11.4628 2.90075 11.5245 2.68911 11.4717 2.48982C11.4189 2.29052 11.26 2.13489 11.0564 2.08323ZM7.39483 8.29719H3.00712H1.94802C1.36351 8.29621 0.889915 7.83254 0.888916 7.26028V6.07525C0.889583 5.50285 1.36337 5.03899 1.94802 5.03834H7.39483C7.56195 5.03834 7.69743 5.17098 7.69743 5.3346V8.00093C7.69743 8.16455 7.56195 8.29719 7.39483 8.29719ZM8.90785 8.29719C8.74073 8.29719 8.60525 8.16455 8.60525 8.00093V5.3346C8.60525 5.17098 8.74073 5.03834 8.90785 5.03834H14.0521C14.6367 5.03899 15.1105 5.50285 15.1112 6.07525V7.26028C15.1102 7.83254 14.6366 8.29621 14.0521 8.29719H8.90785ZM7.69741 9.48222C7.69741 9.3186 7.56193 9.18596 7.39481 9.18596H2.4019C2.23478 9.18596 2.0993 9.3186 2.0993 9.48222V14.0742C2.1003 14.6465 2.57389 15.1102 3.1584 15.1111H7.39481C7.56193 15.1111 7.69741 14.9785 7.69741 14.8149V9.48222ZM8.60525 9.48222C8.60525 9.3186 8.74073 9.18596 8.90785 9.18596H13.5982C13.7653 9.18596 13.9008 9.3186 13.9008 9.48222V14.0742C13.8998 14.6465 13.4262 15.1102 12.8417 15.1111H8.90785C8.74073 15.1111 8.60525 14.9785 8.60525 14.8149V9.48222ZM7.83119 4.30407C7.56248 3.22746 7.12553 1.85223 6.6686 1.4031C5.96987 0.718353 4.83645 0.717822 4.13705 1.40191C3.43764 2.08601 3.4371 3.19567 4.13584 3.88042C4.66115 4.39591 6.38416 4.84918 7.10132 5.02042C7.30648 5.06965 7.52302 5.01059 7.67263 4.86459C7.81779 4.7154 7.87728 4.50511 7.83119 4.30407ZM4.99224 3.04274C4.84596 2.89964 4.78878 2.69101 4.84223 2.49544C4.89567 2.29987 5.05163 2.14707 5.25134 2.0946C5.45106 2.04213 5.6642 2.09796 5.81047 2.24106C6.0617 2.6645 6.25134 3.1202 6.37391 3.59496C5.88939 3.47459 5.42437 3.28873 4.99224 3.04274Z" fill="#CBD0D8"/>
</svg>
