<svg width="115" height="20" viewBox="0 0 115 20" fill="none" xmlns="http://www.w3.org/2000/svg">
<path d="M16.3571 0C17.6802 0.0186857 18.9844 0.377948 20.1818 1.05351C21.3792 1.72907 22.4418 2.70519 23.2978 3.91591L23.312 3.93791C24.1378 5.16688 24.3361 5.36688 24.1045 5.82987C23.757 6.41254 23.384 6.97265 22.987 7.50783L22.9795 7.51783L22.9503 7.54883C22.742 7.78282 21.8253 8.9418 21.7295 9.06379L21.7212 9.07379V14.5997C21.7212 17.5156 19.4087 19.8915 16.5171 19.9935H16.3238H7.15234C6.36022 20.0067 5.57397 19.8289 4.84021 19.4706C4.10645 19.1122 3.44013 18.5807 2.88077 17.9076C2.69427 17.9361 2.50621 17.9471 2.31828 17.9406C1.6558 17.9406 0 17.5136 0 16.4506C0.00155078 16.3285 0.0257659 16.2083 0.0708842 16.0988C0.116003 15.9893 0.18089 15.8933 0.260827 15.8176C0.440227 15.6449 0.664174 15.5526 0.894146 15.5566C1.0284 15.5599 1.16184 15.5824 1.29164 15.6236C1.29164 15.6236 1.68163 15.7626 1.74663 15.5566L1.75579 15.4916V5.39988C1.75496 2.48094 4.06741 0.105998 6.95901 0H7.15234H16.3571ZM19.4037 2.15195C18.7767 2.11415 18.1543 2.29739 17.613 2.67908C17.0718 3.06076 16.6355 3.6242 16.358 4.2999C14.9315 5.29128 13.3923 6.028 11.7889 6.48685C9.57061 7.08684 7.289 6.51985 5.7632 6.61885C4.93769 6.60597 4.13533 6.94629 3.49992 7.57883C3.21705 7.85479 2.99043 8.20462 2.83735 8.60165C2.68427 8.99868 2.60877 9.43241 2.61661 9.86978C2.64994 11.5917 3.84158 13.1477 3.84158 14.7697C3.84377 15.0141 3.79994 15.256 3.71337 15.4773C3.6268 15.6985 3.49971 15.8935 3.34159 16.0476C2.98816 16.3999 2.54273 16.5918 2.08329 16.5896C1.22247 16.5896 1.18997 16.2586 0.924146 16.2586C0.862615 16.2427 0.798336 16.2552 0.74415 16.2936C0.720021 16.3103 0.699754 16.3339 0.685198 16.3624C0.670642 16.3909 0.66226 16.4233 0.660818 16.4566C0.660818 16.8876 1.72329 17.2846 2.31661 17.2846C2.73783 17.3105 3.15854 17.2229 3.54787 17.0282C3.93719 16.8335 4.28527 16.5368 4.56656 16.1596C4.7722 16.5588 5.0681 16.8797 5.41981 17.0849C5.77152 17.29 6.16457 17.3711 6.55318 17.3186C7.81149 17.3186 8.34148 16.7186 8.34148 16.2266C8.34148 15.8266 8.10981 15.6646 7.91065 15.3987C7.7527 15.1913 7.66943 14.9174 7.67899 14.6367C7.90121 14.66 8.12343 14.671 8.34564 14.6697C9.23979 14.6697 9.53728 14.3057 9.53728 13.9407C9.53728 13.7037 9.39895 13.5967 9.26312 13.4467L9.20562 13.3797L9.27312 13.4797C9.32093 13.5532 9.36517 13.63 9.40562 13.7097C9.40562 13.7097 9.07729 14.2727 8.01482 14.0737C8.01482 14.0737 8.9198 13.8937 9.06396 13.4187L9.08229 13.3187L9.07646 13.2187L9.17979 13.3497C9.05905 13.1845 8.99685 12.9692 9.00646 12.7497C8.9963 12.6508 9.00439 12.5503 9.03017 12.4556C9.05595 12.3608 9.09878 12.2739 9.15563 12.2012C9.21249 12.1285 9.28196 12.0717 9.35915 12.0348C9.43634 11.9979 9.51934 11.9818 9.60228 11.9877C9.90061 11.9877 11.0589 12.0877 12.483 12.2527C12.9265 12.2984 13.3394 12.5427 13.6397 12.9369C13.94 13.3312 14.1057 13.8466 14.1038 14.3807L14.108 14.5707V15.2327V15.3397C14.1363 16.4136 14.6013 17.7166 16.5246 17.7166C17.8488 17.7166 18.6079 16.9876 18.6079 16.4256C18.6079 16.0616 18.3096 15.9256 18.1446 15.6966C18.0172 15.5193 17.9263 15.3086 17.8793 15.0814C17.8322 14.8542 17.8303 14.6169 17.8738 14.3887L17.9104 14.2387L18.0721 14.2847C18.2367 14.3235 18.4043 14.3413 18.5721 14.3377C19.5654 14.3377 19.9954 13.9377 19.9954 13.4767C19.9908 13.3869 19.967 13.3001 19.9265 13.2245C19.8859 13.1488 19.8299 13.0869 19.7637 13.0447C19.7637 13.2767 19.2996 13.7737 18.4396 13.6447C18.4396 13.6447 19.5229 13.4047 19.3096 12.7807L19.2679 12.6807L19.3812 12.7807L19.4887 12.8667C19.5632 12.9222 19.6406 12.972 19.7204 13.0157C19.5062 12.8587 19.2387 12.7387 19.1996 12.4467C19.0754 10.8582 19.3883 9.26467 20.0904 7.90982L20.197 7.74882L20.8929 8.04882L20.9962 8.08982C21.1028 8.12618 21.2129 8.14568 21.3237 8.14781C21.4975 8.1451 21.6638 8.062 21.7878 7.91582C22.4626 7.18666 23.0631 6.3643 23.577 5.46588C23.0024 4.43977 22.2722 3.55239 21.4245 2.84994C20.82 2.39117 20.119 2.14902 19.4037 2.15195ZM17.4471 13.5457V13.5607L17.4404 13.5977C17.3813 13.9477 17.1963 15.5846 18.1146 16.2886C17.6146 17.1166 16.0313 16.9176 16.0313 16.9176C16.4665 16.7954 16.881 16.584 17.2563 16.2926C17.0942 15.8521 17.0267 15.3699 17.06 14.89C17.0934 14.4101 17.2264 13.9479 17.4471 13.5457ZM62.3827 12.2127C62.886 12.2014 63.3766 12.402 63.7694 12.7797C63.9443 12.9452 64.086 13.1555 64.1842 13.3954C64.2824 13.6352 64.3346 13.8985 64.3369 14.1657C64.3173 14.5791 64.1906 14.9749 63.9744 15.2976C63.7582 15.6203 63.4633 15.8539 63.1311 15.9656C62.7751 16.1149 62.3935 16.1544 62.0215 16.0805C61.6494 16.0065 61.2989 15.8216 61.0019 15.5426C60.7369 15.3015 60.5498 14.9574 60.4726 14.5691C60.3954 14.1809 60.4329 13.7725 60.5786 13.4137C60.7592 13.0348 61.0229 12.7226 61.3409 12.5109C61.659 12.2992 62.0193 12.196 62.3827 12.2127ZM45.3965 12.2127C45.8997 12.2014 46.3903 12.402 46.7831 12.7797C46.958 12.9451 47.0998 13.1555 47.198 13.3953C47.2963 13.6352 47.3484 13.8984 47.3506 14.1657C47.3311 14.5791 47.2043 14.9749 46.9881 15.2976C46.7719 15.6203 46.4771 15.8539 46.1448 15.9656C45.7888 16.1149 45.4072 16.1544 45.0352 16.0805C44.6632 16.0065 44.3126 15.8216 44.0157 15.5426C43.7506 15.3015 43.5635 14.9574 43.4863 14.5691C43.4091 14.1809 43.4466 13.7725 43.5923 13.4137C43.7729 13.0348 44.0366 12.7226 44.3546 12.5109C44.6727 12.2992 45.033 12.196 45.3965 12.2127ZM39.2708 12.3127V13.7997H39.6041L40.8624 12.3097H41.789L40.2324 14.1307L41.9157 16.0536H40.9582L39.6008 14.4997H39.2674V16.0556H38.5058V12.3117L39.2708 12.3127ZM59.802 12.3127V12.9747H57.782V13.7997H59.7361V14.4997H57.782V15.3607H59.832V16.0606H57.0487V12.3117L59.802 12.3127ZM32.3859 12.3127L33.8426 16.0546H33.0484L32.7151 15.1937H31.1251L30.7918 16.0546H30.0326L31.4893 12.3127H32.3859ZM76.4916 12.3127L77.9482 16.0546H77.1541L76.8207 15.1937H75.2299L74.8966 16.0546H74.1358L75.5924 12.3127H76.4916ZM54.5754 12.1467C55.0843 12.1927 55.5694 12.4236 55.9662 12.8087L55.4362 13.3387C55.1907 13.0753 54.8714 12.9325 54.5421 12.9387C54.2489 12.9136 53.9591 13.0259 53.7334 13.2519C53.5078 13.4779 53.3639 13.8001 53.3321 14.1507C53.3547 14.4986 53.489 14.8224 53.7066 15.0539C53.9242 15.2853 54.2082 15.4064 54.4988 15.3917C54.7298 15.4351 54.966 15.3746 55.1621 15.2218C55.3582 15.069 55.5004 14.8346 55.5612 14.5637H54.6346V13.9347H56.357V14.1347C56.3702 14.3915 56.3326 14.6484 56.2475 14.8845C56.1624 15.1206 56.032 15.3293 55.8671 15.4936C55.4948 15.8702 55.0205 16.0701 54.5338 16.0556C54.2077 16.0634 53.8848 15.9776 53.5919 15.8052C53.2991 15.6328 53.0449 15.3789 52.8505 15.0647C52.6826 14.7778 52.5939 14.435 52.5969 14.0845C52.5999 13.734 52.6944 13.3934 52.8671 13.1107C53.0665 12.7993 53.3249 12.5495 53.6208 12.3818C53.9167 12.2142 54.2417 12.1336 54.5688 12.1467H54.5754ZM73.6475 12.3127V16.0546H72.915V12.3117L73.6475 12.3127ZM35.0392 12.3127L36.9158 14.7997V12.3117H37.6775V16.0536H36.9808L35.0642 13.5377V16.0536H34.3359V12.3117L35.0392 12.3127ZM70.4392 12.1467C70.9579 12.1932 71.4533 12.4236 71.8625 12.8087L71.3325 13.3387C71.0869 13.0754 70.7677 12.9326 70.4384 12.9387C70.1477 12.9176 69.8613 13.0312 69.6385 13.2562C69.4156 13.4812 69.2733 13.8004 69.2409 14.1477C69.2635 14.4956 69.3978 14.8194 69.6154 15.0509C69.833 15.2823 70.117 15.4034 70.4076 15.3887C70.6386 15.4321 70.8748 15.3716 71.0709 15.2188C71.267 15.066 71.4092 14.8316 71.47 14.5607H70.4984V13.9317H72.22V14.1317C72.233 14.3885 72.1953 14.6455 72.11 14.8816C72.0247 15.1177 71.8943 15.3264 71.7292 15.4906C71.3569 15.8672 70.8826 16.0671 70.3959 16.0526C70.0697 16.0606 69.7466 15.9748 69.4536 15.8024C69.1606 15.63 68.9063 15.376 68.7118 15.0617C68.5439 14.7748 68.4553 14.432 68.4582 14.0815C68.4612 13.731 68.5557 13.3904 68.7284 13.1077C68.9283 12.7965 69.1872 12.5469 69.4836 12.3798C69.78 12.2126 70.1053 12.1328 70.4326 12.1467H70.4392ZM50.773 12.3127V12.9747H48.7422V13.8357H50.6297V14.5357H48.7406V16.0586H48.0114V12.3117L50.773 12.3127ZM66.6318 12.3127C67.4926 12.3127 67.9559 12.7127 67.9559 13.4377C67.955 13.5871 67.9261 13.7344 67.8714 13.8687C67.8168 14.003 67.7377 14.1209 67.6401 14.2137C67.4202 14.4253 67.1453 14.5371 66.8635 14.5297H66.8301L67.9884 16.0196H67.0818L65.9893 14.5297H65.7577V16.0526H65.0318V12.3117L66.6318 12.3127ZM28.3219 12.3127C29.1493 12.3127 29.7127 12.6127 29.7127 13.3387C29.7067 13.5218 29.6521 13.6978 29.5567 13.8409C29.4613 13.9839 29.3302 14.0866 29.1827 14.1337C29.3459 14.1769 29.494 14.2797 29.6067 14.4279C29.7193 14.5762 29.791 14.7626 29.8118 14.9617C29.8118 15.6906 29.3118 16.0236 28.421 16.0236H26.7877V12.3117L28.3219 12.3127ZM8.85396 11.0567L9.03479 11.0687C9.27377 11.0938 9.50889 11.1571 9.73394 11.2567C9.73394 11.2567 7.71482 11.0247 7.01901 12.8127C6.87117 13.2598 6.80431 13.7396 6.82284 14.2201C6.84137 14.7006 6.94489 15.1708 7.1265 15.5996L7.2165 15.7996L7.31233 15.9866L7.18567 15.8716L7.04317 15.7256C6.68944 15.3459 6.43671 14.8496 6.31652 14.2987L6.28152 14.0987L6.26152 13.9127L6.24986 13.7567C6.28293 13.0512 6.53374 12.3858 6.95339 11.8902C7.37305 11.3946 7.93147 11.1042 8.5198 11.0757L8.66814 11.0587L8.85396 11.0567ZM28.3102 14.4997H27.4827V15.3937H28.311C28.7085 15.3937 28.9777 15.2937 28.9777 14.9297C28.9735 14.5997 28.7085 14.4997 28.3102 14.4997ZM62.3494 12.9437C62.0347 12.9287 61.7263 13.0529 61.4828 13.2927C61.3746 13.3974 61.2886 13.5313 61.232 13.6836C61.1753 13.8359 61.1496 14.0021 61.1569 14.1687C61.1949 14.513 61.3426 14.8262 61.569 15.0425C61.7955 15.2589 62.0829 15.3614 62.3711 15.3287C62.6576 15.3509 62.94 15.2378 63.1579 15.0136C63.3759 14.7894 63.5122 14.4718 63.5377 14.1287C63.5073 13.7843 63.3663 13.4678 63.1446 13.2462C62.9229 13.0245 62.638 12.9153 62.3502 12.9417L62.3494 12.9437ZM45.3631 12.9437C45.0484 12.9286 44.74 13.0528 44.4965 13.2927C44.3883 13.3974 44.3023 13.5313 44.2457 13.6836C44.1891 13.8359 44.1633 14.0021 44.1707 14.1687C44.2086 14.513 44.3563 14.8262 44.5828 15.0425C44.8092 15.2589 45.0967 15.3614 45.3848 15.3287C45.6713 15.3509 45.9537 15.2378 46.1717 15.0136C46.3896 14.7894 46.5259 14.4718 46.5514 14.1287C46.5211 13.7842 46.3799 13.4674 46.158 13.2458C45.9361 13.0241 45.651 12.9151 45.3631 12.9417V12.9437ZM31.9193 13.0437L31.3901 14.4997H32.4493L31.9193 13.0437ZM76.0583 13.0437L75.5283 14.4997H76.5882L76.0583 13.0437ZM66.5585 12.9757H65.7302V13.8997H66.5585C66.956 13.8997 67.1876 13.7337 67.1876 13.4357C67.1876 13.1377 66.9518 12.9727 66.5551 12.9727L66.5585 12.9757ZM28.2485 12.9757H27.4827V13.8367H28.2444C28.6085 13.8367 28.9068 13.7707 28.9068 13.4057C28.9068 13.0407 28.6085 12.9737 28.2444 12.9737L28.2485 12.9757ZM18.1496 12.2537C18.2128 12.2529 18.2742 12.2791 18.3228 12.3276C18.3713 12.3762 18.4039 12.4439 18.4146 12.5187C18.4245 12.584 18.4174 12.6514 18.3943 12.7116C18.3712 12.7719 18.3332 12.8222 18.2855 12.8557C18.2377 12.8891 18.1825 12.9041 18.1274 12.8986C18.0723 12.8931 18.02 12.8673 17.9775 12.8248C17.935 12.7824 17.9045 12.7252 17.89 12.6612C17.8755 12.5971 17.8779 12.5293 17.8967 12.4669C17.9155 12.4045 17.9498 12.3505 17.9951 12.3124C18.0403 12.2743 18.0943 12.2538 18.1496 12.2537ZM5.7382 7.27683H5.99986C7.1665 7.29783 8.8448 7.51583 10.0989 7.41783L10.4323 7.38283L10.5023 7.66483C11.0222 9.23421 11.9219 10.5807 13.0855 11.5307L13.2647 11.6907L13.4247 11.8297L13.4047 11.8147L13.5964 11.9537C13.7841 12.0831 13.9786 12.2047 14.1797 12.3187L14.4805 12.4827L14.608 12.5577L14.6738 12.5917L14.7405 12.6237L14.873 12.6787L14.7297 12.6247C14.6331 12.5844 14.5388 12.537 14.4472 12.4827L14.1322 12.3257L13.823 12.1567L13.8139 12.1507L13.5347 12.0147C12.1372 11.2727 10.7264 9.67378 9.11229 8.7768C7.324 7.78382 5.50321 7.61783 4.54323 8.51181C4.28695 8.76428 4.0921 9.09496 3.97918 9.46908C3.86627 9.84319 3.83946 10.2469 3.90158 10.6378L3.93574 10.8008L3.97908 10.9568L3.86658 10.8358L3.74991 10.6998C3.48903 10.3526 3.34395 9.90224 3.34242 9.43479C3.39694 8.84139 3.63321 8.29346 4.00538 7.8973C4.37754 7.50114 4.85908 7.28501 5.35654 7.29083L5.49987 7.28383L5.7382 7.27683ZM16.6546 11.9867C16.7164 11.9919 16.7752 12.0203 16.8228 12.0679C16.8703 12.1155 16.9042 12.1798 16.9196 12.2517C16.9196 12.2881 16.9126 12.324 16.8994 12.3568C16.8861 12.3895 16.8668 12.4182 16.8429 12.4407C16.7896 12.4918 16.7229 12.5187 16.6546 12.5167C16.5949 12.517 16.5375 12.4896 16.4943 12.4402C16.4511 12.3908 16.4255 12.3233 16.423 12.2517C16.4193 12.2178 16.4225 12.1834 16.4324 12.1513C16.4423 12.1193 16.4585 12.0906 16.4796 12.0677C16.5277 12.0151 16.5904 11.9862 16.6555 11.9867H16.6546ZM15.2313 11.4867C15.2945 11.4859 15.3559 11.5121 15.4045 11.5607C15.4531 11.6092 15.4856 11.677 15.4963 11.7517C15.5062 11.817 15.4992 11.8844 15.4761 11.9447C15.453 12.005 15.415 12.0552 15.3672 12.0887C15.3194 12.1221 15.2643 12.1371 15.2092 12.1316C15.154 12.1261 15.1017 12.1003 15.0592 12.0579C15.0167 12.0154 14.9862 11.9582 14.9717 11.8942C14.9573 11.8301 14.9596 11.7623 14.9784 11.6999C14.9972 11.6375 15.0316 11.5836 15.0768 11.5454C15.1221 11.5073 15.176 11.4868 15.2313 11.4867ZM12.598 6.77785L12.6464 6.78385L12.6922 6.80285C12.7126 6.81391 12.731 6.8298 12.7461 6.84955C12.7613 6.86931 12.773 6.89254 12.7805 6.91784C13.15 7.97447 13.7294 8.90656 14.468 9.63278C15.6411 10.7795 17.0956 11.4319 18.6079 11.4897C16.9843 11.5092 15.4051 10.8542 14.138 9.63578C13.4207 8.93863 12.8438 8.05601 12.4505 7.05384C12.4363 7.03249 12.4271 7.00688 12.424 6.97975C12.4209 6.95263 12.4241 6.925 12.433 6.89984C12.4492 6.85896 12.477 6.82634 12.5114 6.80785L12.5497 6.79185L12.598 6.77785ZM13.973 10.6258C14.0348 10.631 14.0936 10.6594 14.1412 10.7069C14.1887 10.7545 14.2226 10.8188 14.238 10.8908C14.2353 10.9475 14.2178 11.0017 14.1878 11.0457C14.1579 11.0898 14.1171 11.1213 14.0713 11.1357C14.023 11.1562 13.9712 11.1618 13.9207 11.1518C13.8701 11.1418 13.8225 11.1167 13.7822 11.0787C13.7462 11.046 13.7208 10.9993 13.7103 10.9466C13.6998 10.8939 13.7049 10.8385 13.7247 10.7898C13.7497 10.738 13.7861 10.6956 13.8299 10.6672C13.8738 10.6388 13.9233 10.6255 13.973 10.6288V10.6258ZM18.3437 10.1948C18.412 10.1928 18.4787 10.2197 18.5321 10.2708C18.5558 10.2932 18.575 10.3217 18.5883 10.3543C18.6016 10.3868 18.6086 10.4225 18.6087 10.4588C18.6187 10.524 18.6116 10.5914 18.5885 10.6517C18.5654 10.712 18.5274 10.7623 18.4796 10.7957C18.4319 10.8292 18.3767 10.8442 18.3216 10.8386C18.2665 10.8331 18.2141 10.8074 18.1716 10.7649C18.1292 10.7224 18.0986 10.6653 18.0842 10.6012C18.0697 10.5372 18.072 10.4693 18.0908 10.4069C18.1096 10.3445 18.144 10.2906 18.1893 10.2524C18.2345 10.2143 18.2885 10.1938 18.3437 10.1938V10.1948ZM16.8538 9.73078C16.922 9.7288 16.9887 9.7557 17.0421 9.80678C17.0658 9.82918 17.0851 9.85772 17.0983 9.89027C17.1116 9.92282 17.1186 9.95854 17.1188 9.99477C17.1215 10.0318 17.1165 10.069 17.1041 10.1031C17.0917 10.1372 17.0724 10.167 17.0479 10.1898C16.9931 10.242 16.9236 10.2671 16.8538 10.2598C16.8216 10.2665 16.7885 10.2647 16.7569 10.2545C16.7254 10.2443 16.696 10.2259 16.671 10.2007C16.646 10.1754 16.6259 10.1439 16.6121 10.1083C16.5983 10.0728 16.5911 10.034 16.5911 9.99477C16.5911 9.95554 16.5983 9.91677 16.6121 9.88121C16.6259 9.84564 16.646 9.81412 16.671 9.78887C16.696 9.76362 16.7254 9.74525 16.7569 9.73504C16.7885 9.72483 16.8216 9.72304 16.8538 9.72978V9.73078ZM12.9464 9.66478C13.0096 9.66372 13.0711 9.68985 13.1197 9.73845C13.1683 9.78705 13.2008 9.85492 13.2114 9.92978C13.2213 9.99505 13.2142 10.0624 13.1911 10.1227C13.168 10.183 13.13 10.2333 13.0823 10.2667C13.0345 10.3002 12.9793 10.3152 12.9242 10.3096C12.8691 10.3041 12.8167 10.2784 12.7743 10.2359C12.7318 10.1934 12.7012 10.1363 12.6868 10.0722C12.6723 10.0082 12.6747 9.94034 12.6935 9.87794C12.7123 9.81553 12.7466 9.7616 12.7919 9.72346C12.8371 9.68532 12.8911 9.66483 12.9464 9.66478ZM15.5296 8.8708C15.5619 8.86406 15.5949 8.86585 15.6265 8.87606C15.6581 8.88627 15.6874 8.90464 15.7124 8.92989C15.7374 8.95514 15.7576 8.98666 15.7714 9.02222C15.7852 9.05779 15.7923 9.09655 15.7923 9.13579C15.7923 9.17503 15.7852 9.21379 15.7714 9.24936C15.7576 9.28493 15.7374 9.31644 15.7124 9.34169C15.6874 9.36694 15.6581 9.38531 15.6265 9.39552C15.5949 9.40573 15.5619 9.40753 15.5296 9.40079C15.4664 9.40164 15.405 9.37544 15.3565 9.32687C15.3079 9.27831 15.2753 9.21056 15.2647 9.13579C15.2726 9.05978 15.3045 8.99029 15.3537 8.94157C15.403 8.89285 15.4659 8.86861 15.5296 8.8738V8.8708ZM14.7688 5.92287C15.0946 6.65487 15.5325 7.30658 16.0596 7.84382C16.8311 8.63933 17.7754 9.15475 18.7821 9.32979L19.0062 9.36679L18.7562 9.33879C17.5599 9.19083 16.4318 8.59906 15.5288 7.64583C15.1091 7.19954 14.7417 6.68725 14.4363 6.12286C14.4236 6.1011 14.4151 6.07615 14.4115 6.04988C14.4079 6.02361 14.4093 5.99671 14.4157 5.9712C14.422 5.94568 14.4331 5.92223 14.4481 5.9026C14.463 5.88297 14.4815 5.86768 14.5022 5.85787C14.5463 5.83103 14.5969 5.82324 14.6453 5.8358C14.6937 5.84836 14.737 5.88052 14.768 5.92687L14.7688 5.92287ZM109.603 4.1999V5.26188C109.586 5.53508 109.491 5.79302 109.334 5.99202C109.177 6.19101 108.968 6.31884 108.742 6.35386C109.02 6.38575 109.278 6.5439 109.462 6.79606C109.647 7.04822 109.745 7.37539 109.735 7.71082C109.735 8.6378 108.907 9.33579 107.652 9.33579C106.393 9.26979 105.598 8.5738 105.598 7.41483V7.21484H106.591V7.38083C106.587 7.52462 106.613 7.66725 106.666 7.79637C106.719 7.92548 106.797 8.03719 106.894 8.12182C107.112 8.31714 107.383 8.40709 107.653 8.37381C108.316 8.37381 108.716 8.10882 108.716 7.54583C108.716 7.01584 108.318 6.78385 107.653 6.78385H107.223V5.88687H107.753C108.349 5.88687 108.613 5.65487 108.613 5.12488V4.1999H109.603ZM98.6027 4.16691V4.3999C98.6027 5.49188 100.228 5.59187 100.228 7.34683C100.236 7.62505 100.187 7.9014 100.085 8.15161C99.9835 8.40181 99.8321 8.61821 99.6444 8.7818C99.1989 9.11476 98.6818 9.28352 98.1571 9.26717C97.6324 9.25082 97.1233 9.05007 96.6928 8.6898C96.5098 8.50963 96.3676 8.27701 96.2793 8.01344C96.1911 7.74988 96.1596 7.46386 96.1878 7.18184V6.84884H97.1811V7.11384C97.1631 7.28045 97.1773 7.44981 97.2226 7.60878C97.2679 7.76775 97.3431 7.91207 97.4424 8.03053C97.5417 8.14899 97.6623 8.23842 97.7951 8.29189C97.9278 8.34535 98.069 8.3614 98.2078 8.33881C98.4706 8.36904 98.733 8.27545 98.9394 8.07782C99.0309 7.99218 99.1028 7.88013 99.1484 7.75213C99.194 7.62413 99.2118 7.48435 99.2002 7.34583C99.2002 6.18686 97.6111 5.85587 97.6111 4.4649V4.16491L98.6027 4.16691ZM43.2065 4.16691V4.3999C43.2065 5.49188 44.8315 5.59187 44.8315 7.34683C44.8396 7.62505 44.7906 7.9014 44.6889 8.15161C44.5872 8.40181 44.4359 8.61821 44.2482 8.7818C43.8025 9.11485 43.2853 9.28365 42.7604 9.2673C42.2356 9.25095 41.7263 9.05015 41.2957 8.6898C41.1128 8.50957 40.9706 8.27694 40.8824 8.01339C40.7941 7.74984 40.7626 7.46386 40.7907 7.18184V6.84884H41.784V7.11384C41.766 7.28036 41.7802 7.44961 41.8255 7.6085C41.8707 7.76739 41.9459 7.91164 42.0451 8.03008C42.1442 8.14852 42.2648 8.23798 42.3974 8.29151C42.5301 8.34505 42.6712 8.36123 42.8099 8.33881C43.073 8.36909 43.3356 8.27551 43.5423 8.07782C43.6339 7.99224 43.7058 7.88021 43.7514 7.75219C43.797 7.62417 43.8148 7.48436 43.8032 7.34583C43.8032 6.18686 42.214 5.85587 42.214 4.4649V4.16491L43.2065 4.16691ZM33.8359 4.16691V4.3999C33.8359 5.49188 35.4609 5.59187 35.4609 7.34683C35.469 7.62505 35.42 7.9014 35.3183 8.15161C35.2166 8.40181 35.0652 8.61821 34.8775 8.7818C34.4561 9.16024 33.9311 9.33381 33.4076 9.26779C32.8699 9.31202 32.3388 9.1053 31.9251 8.6908C31.7421 8.51042 31.5999 8.27762 31.5116 8.01389C31.4234 7.75017 31.3919 7.46401 31.4201 7.18184V6.84884H32.4159V7.11384C32.3979 7.28045 32.4121 7.44981 32.4574 7.60878C32.5027 7.76775 32.5779 7.91207 32.6772 8.03053C32.7765 8.14899 32.8972 8.23842 33.0299 8.29189C33.1626 8.34535 33.3038 8.3614 33.4426 8.33881C33.7057 8.36909 33.9683 8.27551 34.1751 8.07782C34.2666 7.99224 34.3385 7.88021 34.3841 7.75219C34.4297 7.62417 34.4476 7.48436 34.4359 7.34583C34.4359 6.18686 32.8467 5.85587 32.8467 4.4649V4.16491L33.8359 4.16691ZM102.709 4.16691H104.664V5.02789H102.843C102.379 5.02789 101.982 5.22788 101.982 5.72787V6.38985C102.132 6.18356 102.323 6.02452 102.536 5.92658C102.75 5.82864 102.98 5.79475 103.207 5.82787C103.661 5.80517 104.107 5.9755 104.467 6.30886C104.627 6.45367 104.758 6.64003 104.85 6.85403C104.942 7.06803 104.992 7.30416 104.998 7.54483C104.998 8.53781 104.17 9.26679 102.978 9.26679C101.785 9.26679 100.992 8.53781 100.992 7.54183V5.62387C101.012 5.40465 101.072 5.19345 101.168 5.00514C101.264 4.81683 101.393 4.65598 101.546 4.5339C101.888 4.25406 102.3 4.12444 102.713 4.16691H102.709ZM55.5912 4.96089C55.7388 4.67212 55.9506 4.43852 56.2028 4.2864C56.455 4.13428 56.7376 4.06969 57.0187 4.09991C57.4815 4.10185 57.9276 4.3071 58.2728 4.67689C58.426 4.83902 58.5451 5.04227 58.6204 5.27008C58.6957 5.4979 58.7251 5.74384 58.7062 5.98786V9.19979H57.7129V5.98786C57.7215 5.85676 57.7075 5.72492 57.6717 5.60064C57.6358 5.47636 57.5789 5.36233 57.5046 5.26572C57.4302 5.1691 57.34 5.09201 57.2396 5.03928C57.1392 4.98655 57.0308 4.95933 56.9212 4.95933C56.8116 4.95933 56.7032 4.98655 56.6028 5.03928C56.5024 5.09201 56.4122 5.1691 56.3378 5.26572C56.2635 5.36233 56.2066 5.47636 56.1707 5.60064C56.1349 5.72492 56.1209 5.85676 56.1296 5.98786V7.17984C56.1354 7.47837 56.087 7.77485 55.9878 8.04869C55.8885 8.32253 55.7408 8.56718 55.5549 8.76565C55.369 8.96412 55.1493 9.11166 54.9111 9.19803C54.6729 9.28439 54.4218 9.30752 54.1754 9.26579C53.9303 9.30797 53.6805 9.28493 53.4436 9.19831C53.2067 9.11169 52.9887 8.9636 52.8048 8.76455C52.621 8.56549 52.4758 8.32035 52.3798 8.04648C52.2837 7.77262 52.239 7.47675 52.2488 7.17984V6.18686C52.2404 5.89441 52.2848 5.60324 52.3789 5.33329C52.473 5.06333 52.6146 4.82096 52.794 4.62277C52.9734 4.42458 53.1863 4.27525 53.4183 4.185C53.6503 4.09476 53.8958 4.06573 54.1379 4.09991C54.4239 4.06176 54.7129 4.12256 54.971 4.27511C55.2291 4.42766 55.4455 4.66561 55.5946 4.96089H55.5912ZM86.0539 4.16691V7.11284C86.0349 7.27617 86.0472 7.44255 86.09 7.59927C86.1327 7.756 86.2048 7.89892 86.3006 8.01711C86.3965 8.13531 86.5136 8.22564 86.643 8.28123C86.7723 8.33681 86.9106 8.35616 87.0472 8.33781C87.6763 8.33781 88.0738 8.00682 88.0738 7.44383C88.0738 6.78185 87.3447 6.64885 87.3447 5.85487H88.338C88.3713 6.28586 89.0996 6.48385 89.0996 7.54183C89.0996 8.53481 88.2388 9.26379 87.0463 9.26379C85.8539 9.26379 85.0597 8.56381 85.0597 7.17784V4.16691H86.0539ZM27.7444 4.16691V7.11284C27.7253 7.27617 27.7377 7.44255 27.7805 7.59927C27.8232 7.756 27.8953 7.89892 27.9911 8.01711C28.087 8.13531 28.2041 8.22564 28.3334 8.28123C28.4628 8.33681 28.6011 8.35616 28.7377 8.33781C29.3668 8.33781 29.7643 8.00682 29.7643 7.44383C29.7643 6.78185 29.0352 6.64885 29.0352 5.85487H30.0285C30.0618 6.28586 30.7901 6.48385 30.7901 7.54183C30.7901 8.53481 29.9293 9.26379 28.7368 9.26379C27.5444 9.26379 26.7544 8.56981 26.7544 7.17984V4.16691H27.7444ZM93.5062 4.16691C93.5062 4.63089 94.1362 4.69689 94.1362 5.32588V5.88787C94.5012 5.90697 94.8477 6.0861 95.1101 6.3913C95.3724 6.69651 95.5323 7.10659 95.5595 7.54383C95.5595 8.53681 94.7645 9.26579 93.5395 9.26579C92.3146 9.26579 91.5196 8.53981 91.5196 7.54383C91.5598 7.06688 91.7505 6.62647 92.0527 6.31282C92.3548 5.99917 92.7454 5.83605 93.1445 5.85687V5.48988C93.1445 4.95989 92.5154 4.95989 92.5154 4.16591L93.5062 4.16691ZM61.7169 4.06691C62.8761 4.06691 63.7035 4.76689 63.7035 5.62287C63.6928 5.87548 63.6065 6.11496 63.4604 6.29735C63.3144 6.47975 63.1185 6.59284 62.9086 6.61585C63.025 6.61895 63.1398 6.64974 63.2463 6.70644C63.3528 6.76315 63.4489 6.84464 63.5289 6.9462C63.609 7.04776 63.6715 7.16737 63.7127 7.29811C63.754 7.42884 63.7733 7.5681 63.7694 7.70783C63.7694 8.6018 62.9411 9.23079 61.6861 9.23079C60.4278 9.26379 59.6328 8.56881 59.6328 7.44283V7.17984H60.6261V7.37983C60.6307 7.51872 60.6623 7.65439 60.7184 7.77596C60.7746 7.89752 60.8537 8.00159 60.9494 8.07982C61.1646 8.26087 61.4275 8.34125 61.6886 8.30581C62.3511 8.30581 62.7511 8.04082 62.7511 7.64383C62.7511 7.21284 62.3536 7.04384 61.9236 7.04384H61.3936V6.15386H61.9236C62.3544 6.15386 62.6519 6.02186 62.6519 5.62387C62.6519 5.25988 62.2877 4.96189 61.6919 4.96189C61.0294 4.96189 60.6295 5.36188 60.6295 5.82287V5.95486H59.6295V5.78887C59.6345 4.82889 60.4628 4.06691 61.7203 4.06691H61.7169ZM66.4518 4.03391C66.9893 3.99011 67.5202 4.19719 67.9334 4.6119C68.1163 4.79219 68.2584 5.02482 68.3467 5.28836C68.435 5.55189 68.4665 5.83785 68.4384 6.11986V7.11284C68.4384 8.50381 67.6435 9.19879 66.4518 9.19879C65.947 9.27885 65.4359 9.12195 65.0252 8.7608C64.8424 8.60517 64.6953 8.39678 64.5975 8.15489C64.4996 7.913 64.4541 7.6454 64.4652 7.37683V7.04684H65.4585V7.34683C65.4534 7.48276 65.4759 7.61815 65.5241 7.74131C65.5723 7.86448 65.6447 7.97173 65.7352 8.05382C65.9389 8.24282 66.1944 8.33311 66.451 8.30681C66.584 8.32601 66.7189 8.30807 66.8452 8.25441C66.9715 8.20074 67.0858 8.11279 67.1791 7.99742C67.2724 7.88205 67.3423 7.74238 67.3832 7.58929C67.4242 7.4362 67.4351 7.27383 67.4151 7.11484V6.15386C67.4323 5.99592 67.4195 5.83538 67.3778 5.68417C67.3361 5.53296 67.2666 5.39496 67.1744 5.28044C67.0821 5.16591 66.9696 5.0778 66.8451 5.02265C66.7205 4.9675 66.5873 4.94673 66.4551 4.96189C66.2 4.94099 65.9474 5.03314 65.7452 5.22088C65.6553 5.30245 65.5827 5.4084 65.5335 5.53006C65.4842 5.65172 65.4597 5.78564 65.4618 5.92087V6.02086H64.4685V5.92087C64.4651 5.65173 64.515 5.38547 64.6141 5.14399C64.7132 4.90252 64.8587 4.69273 65.0385 4.5319C65.4436 4.16237 65.948 3.98506 66.4551 4.03391H66.4518ZM40.0958 4.09991V7.11284C40.0958 8.50381 39.3008 9.19879 38.1091 9.19879C37.6071 9.27894 37.0988 9.12071 36.6925 8.7578C36.5125 8.60153 36.3685 8.39288 36.2742 8.15147C36.1799 7.91007 36.1383 7.64384 36.1533 7.37783V7.04684H37.1467V7.31183C37.1364 7.44661 37.1538 7.58234 37.1974 7.70716C37.241 7.83198 37.3094 7.94208 37.3966 8.02782C37.5947 8.2238 37.8471 8.32274 38.1033 8.30481C38.2405 8.32466 38.3796 8.30643 38.5099 8.25151C38.6403 8.19659 38.7584 8.10647 38.8551 7.98809C38.9518 7.86971 39.0246 7.72624 39.0677 7.56876C39.1109 7.41128 39.1234 7.244 39.1041 7.07984V6.31886C39.1192 6.19534 39.1078 6.06924 39.0709 5.95251C39.034 5.83578 38.9728 5.7323 38.8933 5.65187C38.7132 5.46671 38.4799 5.3734 38.2433 5.39188C38.0377 5.3597 37.8294 5.42145 37.66 5.56487C37.5839 5.62614 37.5215 5.70867 37.4779 5.80535C37.4344 5.90203 37.411 6.00997 37.41 6.11986V6.21986H36.4225V6.11986C36.4205 5.89669 36.4612 5.67594 36.5415 5.47464C36.6219 5.27335 36.7397 5.09689 36.8858 4.95889C37.215 4.64457 37.627 4.48178 38.0475 4.4999C38.249 4.48628 38.4503 4.5301 38.6349 4.62778C38.8196 4.72546 38.9824 4.87422 39.1099 5.06188V4.09991H40.0958ZM113.521 4.3769C113.807 4.52754 114.05 4.7766 114.219 5.09267C114.387 5.40873 114.474 5.77764 114.468 6.15286V9.19979H113.475V6.18686C113.489 6.0311 113.474 5.87348 113.431 5.72557C113.388 5.57766 113.318 5.44321 113.226 5.33207C113.134 5.22093 113.022 5.13593 112.899 5.0833C112.776 5.03066 112.645 5.01173 112.515 5.02789C112.387 5.01601 112.259 5.03824 112.139 5.09298C112.02 5.14772 111.912 5.2336 111.823 5.34444C111.735 5.45529 111.668 5.58833 111.627 5.734C111.586 5.87967 111.573 6.03433 111.588 6.18686V9.19979H110.595V6.15386H110.561C110.555 5.77875 110.642 5.40992 110.81 5.09387C110.979 4.77782 111.221 4.52869 111.507 4.3779C111.821 4.19426 112.165 4.09873 112.514 4.09856C112.863 4.09838 113.207 4.19357 113.521 4.3769ZM75.7266 4.06691C76.1517 4.06432 76.5628 4.24939 76.8816 4.5869C77.0227 4.73468 77.1325 4.92048 77.2022 5.12906C77.2719 5.33765 77.2994 5.56308 77.2824 5.78687V7.11284H76.2899V5.82187C76.3023 5.71095 76.2942 5.59812 76.2661 5.49142C76.2379 5.38471 76.1906 5.28676 76.1273 5.20454C76.064 5.12232 75.9864 5.05785 75.9 5.01574C75.8136 4.97362 75.7206 4.9549 75.6274 4.96089C75.4312 4.96294 75.242 5.04913 75.0941 5.20388C75.0284 5.27174 74.9766 5.35681 74.9426 5.45251C74.9087 5.54822 74.8935 5.65201 74.8983 5.75587V6.94784H73.9058V5.75487C73.9174 5.65339 73.9083 5.55006 73.8792 5.45374C73.8502 5.35742 73.8021 5.271 73.7392 5.20188C73.5954 5.04495 73.4077 4.95857 73.2133 4.95989C73.0209 4.96408 72.8363 5.05224 72.6942 5.20788C72.6312 5.27615 72.5824 5.3612 72.5517 5.45619C72.521 5.55118 72.5093 5.65347 72.5175 5.75487V6.94684H71.5217V5.75487C71.5284 5.64841 71.5159 5.54145 71.485 5.44133C71.4541 5.34121 71.4055 5.25029 71.3426 5.17479C71.2797 5.09929 71.2039 5.041 71.1205 5.00391C71.0371 4.96682 70.9479 4.9518 70.8592 4.95989C70.763 4.9573 70.6674 4.97913 70.5787 5.02395C70.49 5.06877 70.4102 5.13556 70.3445 5.21996C70.2788 5.30436 70.2288 5.40445 70.1975 5.51369C70.1663 5.62294 70.1547 5.73886 70.1634 5.85387V6.35386C70.1634 7.64483 70.7259 8.27481 72.515 8.27481H75.7966V9.19979H72.385C70.9284 9.16679 69.1734 8.6698 69.1734 6.41885V5.78887C69.1632 5.5628 69.1965 5.33695 69.2708 5.12883C69.345 4.92072 69.4583 4.73596 69.6017 4.5889C69.9245 4.25378 70.3366 4.06858 70.7634 4.06691C71.0129 4.05457 71.2607 4.1216 71.4817 4.26121C71.7027 4.40082 71.889 4.60805 72.0217 4.86189C72.1501 4.61243 72.3308 4.40774 72.5458 4.26825C72.7607 4.12875 73.0024 4.05933 73.2467 4.06691C73.4811 4.06546 73.7116 4.13818 73.9151 4.27775C74.1186 4.41732 74.2879 4.61881 74.4058 4.86189C74.5468 4.59999 74.7436 4.38815 74.9759 4.24836C75.2082 4.10857 75.4674 4.04592 75.7266 4.06691ZM50.0655 4.13391V5.05989H48.6747C47.5822 5.05989 46.7214 5.39088 46.5914 6.21886C46.7078 6.07738 46.8471 5.96612 47.0008 5.89198C47.1544 5.81784 47.3192 5.7824 47.4847 5.78787C47.7109 5.78274 47.9336 5.85472 48.127 5.99544C48.3203 6.13617 48.4765 6.33986 48.5772 6.58285C48.728 6.3222 48.932 6.11228 49.1696 5.97311C49.4073 5.83393 49.6707 5.77016 49.9347 5.78787C50.365 5.79595 50.7787 5.98816 51.1013 6.32986C51.2445 6.47979 51.3571 6.66706 51.4306 6.87731C51.5042 7.08756 51.5366 7.31521 51.5255 7.54283V9.16879H50.4988V7.61283C50.5112 7.50191 50.5031 7.38908 50.475 7.28237C50.4469 7.17567 50.3995 7.07772 50.3362 6.9955C50.273 6.91328 50.1954 6.84881 50.109 6.8067C50.0226 6.76458 49.9295 6.74585 49.8364 6.75185C49.6384 6.749 49.4465 6.83372 49.2972 6.98984C49.2311 7.05801 49.1793 7.14405 49.1463 7.24088C49.1133 7.33771 49.0999 7.44257 49.1072 7.54683V8.57081H48.0822V7.50783C48.0879 7.39818 48.0735 7.28838 48.0401 7.18611C48.0066 7.08385 47.9549 6.9916 47.8886 6.91585C47.8223 6.8401 47.743 6.78268 47.6563 6.74761C47.5695 6.71254 47.4774 6.70067 47.3864 6.71285C47.2878 6.70589 47.1891 6.7244 47.0969 6.76713C47.0047 6.80986 46.9213 6.87582 46.8522 6.96055C46.7831 7.04528 46.7299 7.14682 46.6963 7.25831C46.6627 7.3698 46.6494 7.48864 46.6573 7.60683V9.13279H45.6281V6.88284C45.6281 4.63289 47.2531 4.13291 48.5747 4.13291L50.0655 4.13391ZM82.4481 4.06991C82.8763 4.0663 83.2909 4.2497 83.6148 4.5859C83.7581 4.73367 83.8705 4.91981 83.9429 5.12929C84.0152 5.33877 84.0456 5.56573 84.0314 5.79187V9.16379H83.0114V5.85187C83.0238 5.74095 83.0157 5.62812 82.9876 5.52141C82.9595 5.41471 82.9121 5.31676 82.8488 5.23454C82.7856 5.15232 82.708 5.08785 82.6216 5.04574C82.5352 5.00362 82.4421 4.9849 82.349 4.99089C82.151 4.98804 81.9591 5.07276 81.8098 5.22888C81.7437 5.29705 81.6919 5.38309 81.6589 5.47992C81.6259 5.57675 81.6125 5.68161 81.6198 5.78587V7.87182H80.594V5.78887C80.5997 5.67922 80.5853 5.56941 80.5518 5.46715C80.5184 5.36489 80.4667 5.27264 80.4004 5.19689C80.3341 5.12114 80.2548 5.06371 80.168 5.02865C80.0813 4.99358 79.9892 4.98171 79.8982 4.99389C79.7996 4.98708 79.701 5.0057 79.6089 5.04849C79.5168 5.09129 79.4335 5.15727 79.3645 5.24199C79.2955 5.3267 79.2424 5.42819 79.2088 5.5396C79.1752 5.65102 79.1619 5.76977 79.1699 5.88787V9.16579H78.1441V5.79087C78.1384 5.5597 78.177 5.33006 78.2569 5.1196C78.3368 4.90914 78.4558 4.72348 78.6049 4.5769C78.9402 4.24243 79.3639 4.06232 79.7998 4.06891C80.0545 4.05183 80.3083 4.11648 80.5351 4.25621C80.762 4.39594 80.9538 4.6057 81.0906 4.86389C81.2365 4.59716 81.4395 4.38255 81.6784 4.24264C81.9173 4.10274 82.1832 4.04272 82.4481 4.06891V4.06991ZM12.1522 8.47681C12.2154 8.47595 12.2768 8.50216 12.3254 8.55072C12.374 8.59929 12.4065 8.66703 12.4172 8.7418C12.4271 8.80708 12.4201 8.87444 12.397 8.93473C12.3739 8.99502 12.3359 9.04531 12.2881 9.07876C12.2403 9.11221 12.1852 9.12719 12.1301 9.12168C12.075 9.11616 12.0226 9.09041 11.9801 9.04793C11.9376 9.00545 11.9071 8.9483 11.8926 8.88425C11.8782 8.8202 11.8805 8.75236 11.8993 8.68996C11.9181 8.62756 11.9525 8.57362 11.9977 8.53549C12.043 8.49735 12.0969 8.47686 12.1522 8.47681ZM18.9729 8.17681C19.0412 8.17483 19.1078 8.20173 19.1612 8.25281C19.1851 8.27532 19.2044 8.30402 19.2176 8.33675C19.2309 8.36948 19.2378 8.4054 19.2379 8.44181C19.2407 8.47908 19.2356 8.51659 19.223 8.55085C19.2105 8.58512 19.191 8.61503 19.1662 8.6378C19.1111 8.6903 19.0413 8.71536 18.9712 8.7078C18.939 8.71454 18.906 8.71275 18.8744 8.70254C18.8428 8.69233 18.8135 8.67396 18.7885 8.64871C18.7634 8.62346 18.7433 8.59195 18.7295 8.55638C18.7157 8.52081 18.7086 8.48205 18.7086 8.44281C18.7086 8.40357 18.7157 8.36481 18.7295 8.32924C18.7433 8.29367 18.7634 8.26216 18.7885 8.23691C18.8135 8.21166 18.8428 8.19329 18.8744 8.18308C18.906 8.17287 18.939 8.17107 18.9712 8.17781L18.9729 8.17681ZM93.5429 6.61385C93.3861 6.59815 93.2286 6.62897 93.0841 6.70361C92.9397 6.77825 92.8128 6.89441 92.7146 7.04184C92.6298 7.1759 92.5839 7.33955 92.5839 7.50783C92.5839 7.6761 92.6298 7.83976 92.7146 7.97382C92.8128 8.12125 92.9397 8.2374 93.0841 8.31205C93.2286 8.38669 93.3861 8.41751 93.5429 8.40181C93.7897 8.43065 94.0369 8.35028 94.2378 8.17581C94.393 8.04278 94.4978 7.84143 94.5295 7.61583L94.5362 7.50683C94.5335 7.37522 94.5052 7.2462 94.4534 7.13017C94.4015 7.01414 94.3277 6.91435 94.2378 6.83884C94.0369 6.66532 93.7901 6.58568 93.5437 6.61485L93.5429 6.61385ZM102.977 6.64685C102.873 6.64526 102.77 6.66822 102.674 6.7144C102.577 6.76058 102.49 6.82908 102.415 6.916C102.341 7.00291 102.282 7.10654 102.241 7.22095C102.2 7.33537 102.178 7.45833 102.177 7.58283C102.213 7.83437 102.329 8.05964 102.499 8.21247C102.669 8.3653 102.882 8.43412 103.093 8.40481C103.304 8.41692 103.51 8.32949 103.668 8.16126C103.826 7.99302 103.922 7.75738 103.937 7.50483C103.932 7.3785 103.903 7.2552 103.852 7.14443C103.801 7.03365 103.73 6.93835 103.643 6.86584C103.45 6.70066 103.214 6.62339 102.978 6.64785L102.977 6.64685ZM54.2054 4.99489C54.0756 4.98418 53.9454 5.00836 53.8244 5.06567C53.7033 5.12298 53.5944 5.21197 53.5056 5.32616C53.4169 5.44035 53.3504 5.57686 53.3112 5.72576C53.2719 5.87465 53.2609 6.03218 53.2788 6.18686V7.11384C53.2788 7.97482 53.6763 8.33881 54.2054 8.33881C54.3368 8.34513 54.4678 8.31677 54.5891 8.25574C54.7104 8.19471 54.8191 8.10249 54.9074 7.98559C54.9958 7.86869 55.0617 7.72994 55.1005 7.57915C55.1393 7.42835 55.1501 7.26918 55.1321 7.11284V6.18686C55.15 6.03218 55.1389 5.87465 55.0997 5.72576C55.0604 5.57686 54.994 5.44035 54.9052 5.32616C54.8164 5.21197 54.7076 5.12298 54.5865 5.06567C54.4654 5.00836 54.3353 4.98418 54.2054 4.99489ZM14.5397 7.71483C14.5993 7.7145 14.6568 7.74191 14.7 7.79132C14.7432 7.84073 14.7687 7.90828 14.7713 7.97982C14.775 8.0137 14.7718 8.04815 14.7619 8.0802C14.752 8.11225 14.7358 8.14094 14.7147 8.16381C14.6668 8.21617 14.6044 8.24508 14.5397 8.24481C14.5075 8.25155 14.4744 8.24976 14.4428 8.23955C14.4113 8.22934 14.3819 8.21097 14.3569 8.18572C14.3319 8.16047 14.3118 8.12896 14.298 8.09339C14.2841 8.05782 14.277 8.01906 14.277 7.97982C14.277 7.94058 14.2841 7.90182 14.298 7.86625C14.3118 7.83068 14.3319 7.79917 14.3569 7.77392C14.3819 7.74867 14.4113 7.7303 14.4428 7.72009C14.4744 7.70988 14.5075 7.70808 14.5397 7.71483ZM17.7188 7.51483C17.751 7.50809 17.784 7.50988 17.8156 7.52009C17.8472 7.5303 17.8765 7.54867 17.9015 7.57392C17.9266 7.59917 17.9467 7.63069 17.9605 7.66626C17.9743 7.70182 17.9814 7.74059 17.9814 7.77982C17.9814 7.81906 17.9743 7.85782 17.9605 7.89339C17.9467 7.92896 17.9266 7.96047 17.9015 7.98572C17.8765 8.01097 17.8472 8.02935 17.8156 8.03955C17.784 8.04976 17.751 8.05156 17.7188 8.04482C17.6602 8.04482 17.604 8.0169 17.5626 7.9672C17.5212 7.91751 17.4979 7.8501 17.4979 7.77982C17.4979 7.70954 17.5212 7.64214 17.5626 7.59244C17.604 7.54275 17.6602 7.51483 17.7188 7.51483ZM11.5922 7.18384C11.6605 7.18185 11.7272 7.20876 11.7806 7.25984C11.8044 7.28234 11.8237 7.31104 11.837 7.34377C11.8503 7.37651 11.8572 7.41243 11.8572 7.44883C11.8546 7.50556 11.837 7.55981 11.8071 7.60382C11.7771 7.64784 11.7363 7.67934 11.6906 7.69383C11.6423 7.71422 11.5904 7.71969 11.5399 7.70973C11.4894 7.69977 11.4417 7.6747 11.4014 7.63683C11.3654 7.60409 11.34 7.55739 11.3295 7.50469C11.319 7.45198 11.3241 7.39654 11.3439 7.34783C11.3685 7.29656 11.4044 7.25435 11.4476 7.22579C11.4907 7.19724 11.5396 7.18342 11.5889 7.18584L11.5922 7.18384ZM16.4163 4.89989L16.468 4.90489C16.4926 4.90955 16.516 4.92043 16.5369 4.93681C16.5577 4.95319 16.5754 4.97469 16.5888 4.99989C16.9216 5.67441 17.375 6.25194 17.9163 6.69085C18.5074 7.16439 19.1715 7.49114 19.8695 7.65183C19.0803 7.57465 18.3186 7.26781 17.6504 6.75785C17.0932 6.37305 16.6168 5.84008 16.258 5.19988C16.2246 5.09988 16.2246 4.96789 16.3246 4.93489L16.3705 4.91089L16.4163 4.89989ZM16.5188 6.58585C16.551 6.57911 16.5841 6.58091 16.6156 6.59111C16.6472 6.60132 16.6765 6.6197 16.7015 6.64494C16.7266 6.67019 16.7467 6.70171 16.7605 6.73728C16.7743 6.77285 16.7815 6.81161 16.7815 6.85084C16.7815 6.89008 16.7743 6.92884 16.7605 6.96441C16.7467 6.99998 16.7266 7.0315 16.7015 7.05674C16.6765 7.08199 16.6472 7.10037 16.6156 7.11057C16.5841 7.12078 16.551 7.12258 16.5188 7.11584C16.4556 7.11669 16.3942 7.09049 16.3456 7.04192C16.297 6.99336 16.2645 6.92561 16.2538 6.85084C16.2617 6.7739 16.2942 6.70364 16.3444 6.65479C16.3946 6.60595 16.4586 6.58232 16.523 6.58885L16.5188 6.58585ZM13.8039 6.48585C13.8361 6.47911 13.8691 6.48091 13.9007 6.49112C13.9323 6.50132 13.9616 6.5197 13.9866 6.54495C14.0116 6.5702 14.0318 6.60171 14.0456 6.63728C14.0594 6.67285 14.0665 6.71161 14.0665 6.75085C14.0665 6.79008 14.0594 6.82885 14.0456 6.86441C14.0318 6.89998 14.0116 6.9315 13.9866 6.95675C13.9616 6.982 13.9323 7.00037 13.9007 7.01058C13.8691 7.02079 13.8361 7.02258 13.8039 7.01584C13.7406 7.0167 13.6792 6.99049 13.6307 6.94193C13.5821 6.89336 13.5496 6.82561 13.5389 6.75085C13.547 6.67408 13.5796 6.60407 13.6297 6.55543C13.6799 6.50679 13.7438 6.4833 13.808 6.48985L13.8039 6.48585ZM19.9954 6.48585C20.0586 6.48479 20.1201 6.51092 20.1687 6.55953C20.2173 6.60813 20.2498 6.67599 20.2604 6.75085C20.271 6.81632 20.2645 6.88415 20.2418 6.94501C20.219 7.00588 20.1811 7.0568 20.1333 7.09078C20.0855 7.12476 20.03 7.14012 19.9746 7.13477C19.9192 7.12942 19.8665 7.10361 19.8238 7.06089C19.7811 7.01816 19.7505 6.96062 19.7362 6.89617C19.7218 6.83172 19.7245 6.76352 19.7437 6.70094C19.763 6.63836 19.7979 6.58447 19.8437 6.54667C19.8895 6.50888 19.944 6.48903 19.9995 6.48985L19.9954 6.48585ZM21.1212 6.31986C21.1816 6.31696 21.2408 6.34041 21.2878 6.38586C21.3087 6.40562 21.3255 6.43087 21.3369 6.45965C21.3483 6.48843 21.354 6.51998 21.3537 6.55185C21.3624 6.60907 21.3562 6.66813 21.336 6.72099C21.3158 6.77385 21.2824 6.81794 21.2406 6.84726C21.1987 6.87659 21.1503 6.88971 21.102 6.88486C21.0537 6.88 21.0078 6.8574 20.9706 6.82012C20.9334 6.78285 20.9066 6.73272 20.894 6.67656C20.8814 6.62039 20.8835 6.56092 20.9001 6.50625C20.9166 6.45157 20.9468 6.40434 20.9865 6.37099C21.0262 6.33763 21.0735 6.31978 21.122 6.31986H21.1212ZM18.8037 6.11986C18.8738 6.1122 18.9437 6.13727 18.9987 6.18986C19.023 6.21276 19.0422 6.2426 19.0544 6.27666C19.0666 6.31073 19.0716 6.34792 19.0687 6.38486C19.0787 6.45013 19.0716 6.5175 19.0485 6.57779C19.0254 6.63807 18.9874 6.68836 18.9396 6.72181C18.8919 6.75526 18.8367 6.77024 18.7816 6.76473C18.7265 6.75921 18.6741 6.73346 18.6316 6.69098C18.5892 6.6485 18.5586 6.59135 18.5441 6.5273C18.5297 6.46326 18.532 6.39542 18.5508 6.33302C18.5696 6.27061 18.604 6.21668 18.6492 6.17854C18.6945 6.1404 18.7484 6.11991 18.8037 6.11986ZM21.9162 5.61987C21.968 5.61689 22.019 5.63681 22.0595 5.67587C22.0775 5.69279 22.0919 5.71454 22.1016 5.73938C22.1113 5.76422 22.116 5.79145 22.1153 5.81887C22.1225 5.86775 22.117 5.91809 22.0995 5.96308C22.082 6.00807 22.0535 6.04552 22.0177 6.07036C21.9819 6.09521 21.9406 6.10624 21.8993 6.10196C21.8581 6.09768 21.819 6.0783 21.7873 6.04645C21.7556 6.0146 21.7328 5.97182 21.722 5.9239C21.7113 5.87598 21.713 5.82524 21.7271 5.77857C21.7411 5.73189 21.7668 5.69154 21.8007 5.66297C21.8345 5.63441 21.8748 5.61901 21.9162 5.61887V5.61987ZM15.6913 5.41988C15.7554 5.41475 15.8187 5.43941 15.868 5.48874C15.9173 5.53808 15.949 5.60831 15.9563 5.68487C15.949 5.76143 15.9173 5.83166 15.868 5.881C15.8187 5.93034 15.7554 5.955 15.6913 5.94986C15.6281 5.95072 15.5667 5.92451 15.5181 5.87595C15.4696 5.82738 15.437 5.75964 15.4263 5.68487C15.4358 5.60938 15.469 5.54109 15.519 5.49389C15.569 5.4467 15.6321 5.42417 15.6955 5.43088L15.6913 5.41988ZM21.817 4.5259C21.7391 4.94269 21.5394 5.3122 21.2539 5.5674C20.9685 5.8226 20.6163 5.94658 20.2612 5.91687C19.8633 5.93244 19.4674 5.84194 19.1021 5.65187C19.0807 5.64291 19.061 5.62881 19.0443 5.61043C19.0276 5.59205 19.0142 5.56978 19.005 5.54498C18.9957 5.52018 18.9907 5.49337 18.9904 5.46618C18.99 5.439 18.9943 5.41202 19.0029 5.38688C19.0641 5.32008 19.1403 5.27627 19.2221 5.26088L19.2687 5.26688L19.3004 5.28788L19.4421 5.37488C19.7404 5.53818 20.0649 5.62145 20.3929 5.61887C20.6987 5.6662 21.0087 5.5839 21.2693 5.38617C21.5299 5.18844 21.7248 4.8877 21.8203 4.5359L21.817 4.5259ZM17.9429 5.35388C18.0061 5.35302 18.0675 5.37923 18.1161 5.42779C18.1647 5.47636 18.1972 5.5441 18.2079 5.61887C18.1968 5.69354 18.1642 5.76115 18.1158 5.80986C18.0673 5.85856 18.0061 5.88525 17.9429 5.88525C17.8797 5.88525 17.8185 5.85856 17.7701 5.80986C17.7216 5.76115 17.689 5.69354 17.6779 5.61887C17.6872 5.54339 17.7202 5.475 17.77 5.42763C17.8199 5.38026 17.8829 5.35746 17.9463 5.36388L17.9429 5.35388ZM20.592 3.39992C20.8597 3.41192 21.1147 3.53939 21.3103 3.75891C21.3972 3.85552 21.4642 3.97496 21.5061 4.10785C21.5481 4.24075 21.5638 4.3835 21.552 4.5249C21.4451 4.8116 21.2561 5.0428 21.0192 5.17655C20.7824 5.3103 20.5135 5.33774 20.2612 5.25388C19.9936 5.24179 19.7385 5.11434 19.5429 4.89489C19.456 4.79828 19.389 4.67885 19.3471 4.54595C19.3052 4.41305 19.2895 4.27031 19.3012 4.12891C19.4098 3.84337 19.6 3.61395 19.8375 3.48224C20.0749 3.35052 20.3437 3.32522 20.5954 3.41092L20.592 3.39992ZM22.3137 4.85689C22.3534 4.8562 22.392 4.87254 22.4225 4.90297C22.4531 4.9334 22.4736 4.97593 22.4803 5.02289C22.4861 5.06318 22.4815 5.10463 22.467 5.14166C22.4526 5.17869 22.429 5.20952 22.3995 5.22999C22.37 5.25046 22.336 5.25959 22.3021 5.25615C22.2681 5.25271 22.2359 5.23687 22.2096 5.21076C22.1834 5.18464 22.1645 5.14952 22.1554 5.1101C22.1464 5.07069 22.1476 5.02889 22.1589 4.99033C22.1702 4.95178 22.1912 4.91831 22.2188 4.89445C22.2465 4.87059 22.2796 4.85748 22.3137 4.85689ZM19.7979 4.2279C19.7898 4.32658 19.8006 4.42615 19.8295 4.51904C19.8584 4.61193 19.9046 4.69568 19.9645 4.76389C20.1 4.9192 20.2774 5.01109 20.4645 5.02289C20.6297 5.07135 20.8034 5.0573 20.9617 4.98264C21.12 4.90798 21.2552 4.77638 21.3487 4.6059C21.2941 4.67035 21.2273 4.71795 21.154 4.74459C21.0807 4.77124 21.0031 4.77615 20.9279 4.75889C20.8802 4.75996 20.8329 4.74958 20.7886 4.72838C20.7444 4.70717 20.7041 4.67556 20.6702 4.63541C20.6362 4.59525 20.6093 4.54736 20.591 4.49455C20.5728 4.44175 20.5635 4.38509 20.5637 4.3279C20.6052 4.21612 20.6777 4.1251 20.7689 4.07038C20.8601 4.01566 20.9643 4.00065 21.0637 4.02791C21.1227 4.03136 21.1804 4.04982 21.2329 4.08206C21.2855 4.1143 21.3318 4.15958 21.3687 4.2149C21.3386 4.11743 21.2911 4.02904 21.2295 3.95591C21.094 3.8006 20.9166 3.70871 20.7295 3.69692C20.5465 3.64024 20.3526 3.66354 20.1825 3.76265C20.0124 3.86176 19.8773 4.03021 19.8012 4.2379L19.7979 4.2279ZM18.4729 4.3939C18.5362 4.39284 18.5977 4.41897 18.6463 4.46757C18.6949 4.51617 18.7274 4.58404 18.7379 4.65889C18.7268 4.73356 18.6942 4.80118 18.6458 4.84988C18.5973 4.89858 18.5361 4.92528 18.4729 4.92528C18.4097 4.92528 18.3485 4.89858 18.3001 4.84988C18.2516 4.80118 18.219 4.73356 18.2079 4.65889C18.2165 4.58268 18.2491 4.51332 18.299 4.46512C18.3489 4.41692 18.4124 4.39357 18.4762 4.3999L18.4729 4.3939ZM17.4463 4.3939C17.508 4.39912 17.5668 4.42752 17.6144 4.47507C17.662 4.52263 17.6959 4.58694 17.7113 4.65889C17.7002 4.73356 17.6676 4.80118 17.6191 4.84988C17.5707 4.89858 17.5095 4.92528 17.4463 4.92528C17.3831 4.92528 17.3219 4.89858 17.2734 4.84988C17.225 4.80118 17.1924 4.73356 17.1813 4.65889C17.1898 4.58249 17.2225 4.51297 17.2727 4.46475C17.3228 4.41653 17.3864 4.39331 17.4504 4.3999L17.4463 4.3939ZM19.9304 2.77294C20.2613 2.75385 20.5914 2.8276 20.8945 2.98834C21.1975 3.14908 21.4652 3.39237 21.6762 3.69892L21.752 3.82891L21.8178 3.96291L21.7428 3.84491L21.6662 3.74391C21.4735 3.52498 21.2467 3.35385 20.9987 3.24034C20.7508 3.12684 20.4866 3.07319 20.2214 3.08248C19.9562 3.09177 19.695 3.16382 19.4531 3.29448C19.2111 3.42515 18.993 3.61186 18.8112 3.84391C18.7761 3.88428 18.7337 3.91432 18.6873 3.93168C18.6409 3.94903 18.5917 3.95322 18.5437 3.94391C18.4974 3.93802 18.4531 3.91802 18.4151 3.88582C18.377 3.85362 18.3464 3.81028 18.3262 3.75991C18.3099 3.7122 18.3064 3.65953 18.3163 3.60932C18.3261 3.5591 18.3489 3.51385 18.3812 3.47992C18.8045 3.01614 19.3607 2.76644 19.9337 2.78294L19.9304 2.77294ZM17.4796 3.53292C17.5315 3.52994 17.5825 3.54986 17.6229 3.58892C17.6409 3.60583 17.6554 3.62759 17.6651 3.65243C17.6748 3.67727 17.6794 3.7045 17.6788 3.73192C17.6707 3.78816 17.6463 3.83918 17.61 3.87595C17.5736 3.91273 17.5276 3.9329 17.48 3.9329C17.4325 3.9329 17.3864 3.91273 17.3501 3.87595C17.3137 3.83918 17.2893 3.78816 17.2813 3.73192C17.2909 3.67691 17.3164 3.62776 17.3533 3.59317C17.3902 3.55858 17.4361 3.54078 17.4829 3.54292L17.4796 3.53292ZM18.0754 2.80394C18.1159 2.79949 18.1561 2.81446 18.1874 2.84558C18.2186 2.8767 18.2383 2.92142 18.2421 2.96993C18.2383 3.01844 18.2186 3.06316 18.1874 3.09428C18.1561 3.1254 18.1159 3.14038 18.0754 3.13593C18.0357 3.13662 17.9971 3.12028 17.9666 3.08985C17.936 3.05941 17.9155 3.01689 17.9088 2.96993C17.9116 2.94594 17.9184 2.92287 17.9287 2.90203C17.939 2.88119 17.9526 2.86301 17.9688 2.84851C17.985 2.83402 18.0034 2.8235 18.023 2.81757C18.0426 2.81163 18.0629 2.8104 18.0829 2.81394L18.0754 2.80394Z" fill="#2E5764"/>
</svg>
