<svg width="80" height="16" viewBox="0 0 80 16" fill="none" xmlns="http://www.w3.org/2000/svg">
<path d="M8.7498 14.9997V11.7328H3.49992V1.00006H0V14.9997H8.7498ZM14.7497 14.9997V1.00006H11.2497V14.9997H14.7497ZM21.6745 14.9997C24.1495 14.9997 25.4994 14.4398 26.3744 13.0398C26.6167 12.7034 26.7988 12.3107 26.9092 11.8862C27.0196 11.4617 27.056 11.0145 27.0161 10.5724C26.9762 10.1303 26.861 9.7028 26.6774 9.31648C26.4939 8.93016 26.2461 8.59331 25.9494 8.3269C25.4744 7.83691 25.4744 7.81391 25.9744 6.92693C27.0994 4.96697 26.3244 2.56403 24.2744 1.53705C23.2995 1.07006 22.8245 1.00006 20.1995 1.00006H17.2496V4.03299H19.4496C21.8745 4.03299 22.7495 4.35999 22.7495 5.29296C22.7495 6.08595 22.2745 6.36594 20.9495 6.36594H19.7496V9.39987H21.0245C22.6495 9.39987 23.2495 9.69986 23.2495 10.5428C23.2495 11.4528 22.7245 11.8028 21.0995 11.9198L19.7496 12.0128V14.9997H21.6745ZM38.9991 14.9997V11.7328H32.9992V9.63287H38.4991V6.36594H32.9992V4.26599H38.9991V1.00006H29.4993V14.9997H38.9991ZM51.2488 14.8127C50.7923 13.9591 50.3 13.1337 49.7739 12.3398L48.3239 10.0299L49.3739 9.07288C51.4988 7.08992 51.4238 4.21999 49.1989 2.23603C47.9989 1.16306 47.2989 1.00006 44.099 1.00006H41.2491V3.98699L43.774 4.07999C46.074 4.14999 46.3489 4.19699 46.7739 4.70998C46.9259 4.84267 47.047 5.01999 47.1255 5.22494C47.204 5.42988 47.2373 5.65558 47.2222 5.88041C47.2072 6.10524 47.1442 6.32166 47.0395 6.50894C46.9347 6.69621 46.7916 6.84806 46.6239 6.94993C46.124 7.43992 45.774 7.53291 44.624 7.53291H43.249V9.34787C43.249 10.5478 43.299 10.5668 43.949 10.5668C44.549 10.5668 44.799 10.8238 45.999 12.7838L47.3739 14.9997H49.3239C49.9697 15.0673 50.6205 15.0041 51.2488 14.8127ZM60.7486 14.9997V4.26699H64.4985V1.00006H53.2488V4.26699H56.9987V14.9997H60.7486ZM74.9983 14.9997V9.93686L77.4982 5.66696C78.8732 3.31001 79.9982 1.30406 79.9982 1.18706C79.3427 1.00833 78.6689 0.945337 77.9982 1.00006H75.9983L74.6483 3.50001L73.2983 6.01995L71.9734 3.50001L70.6234 1.00006H68.5734C67.8803 0.957959 67.1853 0.997144 66.4985 1.11706C66.4985 1.18706 67.6235 3.17001 68.9984 5.52696L71.4984 9.79686V14.9997H74.9983Z" fill="#2E5764"/>
</svg>
