<svg width="75" height="20" viewBox="0 0 75 20" fill="none" xmlns="http://www.w3.org/2000/svg">
<path d="M12.6785 13.6294C14.5657 14.2094 16.3994 15.0161 18.1517 16.0372C19.0732 16.5615 19.9629 17.1626 20.8141 17.8364C21.3416 18.2862 21.6975 18.712 21.4333 19.1847C21.3449 19.3124 21.2344 19.4156 21.1095 19.4872C20.9847 19.5588 20.8484 19.5971 20.71 19.5995C17.7837 19.9062 14.8465 20.0366 11.9094 19.9903H11.0602C6.98696 19.9793 1.90291 19.7904 1.03127 19.6795C0.905436 19.6565 0.73294 19.5985 0.744606 19.4486C0.744606 19.3217 0.847937 19.2647 0.927935 19.2297C0.991866 19.2055 1.05699 19.1862 1.12293 19.1717C4.42879 18.1372 7.57209 16.4638 10.4294 14.2171C10.7405 13.9164 11.1057 13.7067 11.4961 13.6047C11.8865 13.5026 12.2913 13.5111 12.6785 13.6294ZM10.2227 0.0208656C10.2622 0.0473268 10.2929 0.0893134 10.3096 0.139748C10.3263 0.190182 10.328 0.245979 10.3144 0.297734C10.3144 0.309728 10.2802 0.435668 10.2686 0.497638C9.50346 3.9488 9.37408 7.5584 9.8894 11.0756C9.99406 11.4791 9.99061 11.9119 9.87955 12.313C9.76849 12.714 9.5554 13.0633 9.27024 13.3115C7.78415 14.7113 6.17122 15.9056 4.46202 16.8718C3.52527 17.4203 2.5593 17.8937 1.57042 18.2892C0.916269 18.52 0.377114 18.623 0.101287 18.1512C0.0363768 18.0269 0.00195313 17.8831 0.00195312 17.7364C0.00195312 17.5897 0.0363768 17.446 0.101287 17.3216C1.3112 14.5942 2.67228 11.9672 4.17536 9.45837C4.31286 9.22848 4.45036 8.9746 4.59202 8.73271C6.63114 5.1974 9.33941 0.862464 9.87856 0.1588C9.91828 0.0977822 9.9721 0.0521563 10.0333 0.0276239C10.0945 0.00309158 10.1604 0.000740891 10.2227 0.0208656ZM11.6669 0.112822C11.8042 0.117953 11.9389 0.158773 12.0618 0.23246C12.1846 0.306147 12.2927 0.410946 12.3785 0.539618C14.0935 2.89763 15.6771 5.38849 17.1192 7.99606C17.2567 8.23795 17.3942 8.47983 17.5359 8.73371C19.5667 12.283 21.9525 16.7999 22.2858 17.6065C22.3316 17.7214 22.3691 17.9063 22.24 17.9863C22.1918 18.0046 22.1406 18.0088 22.0908 17.9987C22.041 17.9887 21.9938 17.9645 21.9533 17.9283C21.9416 17.9163 21.85 17.8284 21.8041 17.7904C19.1109 15.3313 16.0934 13.4306 12.8768 12.1671C12.016 11.7753 11.5685 11.5674 11.2585 10.5079C10.8006 8.57044 10.5761 6.5644 10.5919 4.55071C10.5824 3.46948 10.6554 2.38948 10.8102 1.32424C10.9335 0.643569 11.1177 0.112822 11.6669 0.112822ZM42.8228 5.58921C43.3736 5.58385 43.9222 5.67304 44.4519 5.85408L44.1186 7.27141C43.74 7.08653 43.334 6.99639 42.9253 7.00654C42.5382 6.98557 42.1516 7.06007 41.7895 7.22543C41.6579 7.3004 41.5409 7.40777 41.4461 7.54054C41.3514 7.67331 41.281 7.82851 41.2395 7.99606C41.1178 8.51329 41.065 9.05031 41.0829 9.5873C41.0663 10.1203 41.1206 10.653 41.2437 11.1656C41.2832 11.3296 41.3518 11.4815 41.4449 11.6107C41.538 11.7399 41.6533 11.8435 41.7828 11.9142C42.1363 12.0831 42.5162 12.1577 42.8961 12.1331C43.374 12.1489 43.8486 12.0348 44.2844 11.7992L44.6053 13.2626C44.0297 13.4761 43.4293 13.5774 42.827 13.5624C41.8716 13.6533 40.9233 13.3029 40.1762 12.5829C39.8634 12.1841 39.6233 11.7115 39.4712 11.1952C39.3191 10.6789 39.2584 10.1303 39.2929 9.58431C39.2901 6.92624 40.4668 5.59454 42.8228 5.58921ZM31.7956 5.70416V7.16746H29.7873V13.4595H28.009V7.16746H26.009V5.70416H31.7956ZM35.6396 5.70416C37.2463 5.70416 38.0496 6.39549 38.0496 7.77817C38.0608 7.98889 38.0371 8.20018 37.9799 8.39987C37.9227 8.59956 37.8331 8.78368 37.7163 8.94161C37.4534 9.23288 37.1099 9.39703 36.7521 9.40239C37.1948 9.39362 37.6259 9.57315 37.9688 9.90915C38.1125 10.0799 38.2247 10.2852 38.2977 10.5115C38.3708 10.7378 38.4033 10.9801 38.3929 11.2225C38.3929 12.7088 37.4863 13.4575 35.6846 13.4575H32.863V5.70416H35.6396ZM51.1651 5.70416C52.6451 5.70416 53.3801 6.37284 53.3801 7.7092C53.4039 8.15393 53.2893 8.59345 53.0584 8.94261C52.9428 9.09245 52.8026 9.21185 52.6465 9.29324C52.4904 9.37462 52.322 9.41622 52.1518 9.41539C52.58 9.40177 52.9967 9.58278 53.3184 9.92214C53.4624 10.1044 53.5736 10.3201 53.6453 10.556C53.717 10.7919 53.7475 11.0429 53.7351 11.2935C53.7351 12.7458 52.8743 13.4595 51.1643 13.4595H48.8477V5.70416H51.1651ZM58.1191 5.70416L60.8957 13.4595H59.9899L59.3591 11.5814H56.0767L55.4459 13.4595H54.55L57.3267 5.70416H58.1191ZM62.9524 5.70416L66.9114 11.8012V5.70416H67.7031V13.4595H67.0239L63.0532 7.36237V13.4595H62.2615V5.70416H62.9524ZM70.5605 5.70416V9.3954L73.6354 5.70815H74.6913L71.3955 9.49535L74.9987 13.4595H73.8629L70.558 9.61129V13.4595H69.7205V5.70416H70.5605ZM51.076 9.8022H49.666V12.7408H51.146C51.509 12.7556 51.872 12.7092 52.2243 12.6029C52.4352 12.5438 52.6197 12.3914 52.7409 12.1761C52.8598 11.8985 52.9153 11.5881 52.9018 11.2765C52.9151 10.9614 52.8596 10.6475 52.7409 10.3659C52.6781 10.2526 52.597 10.1555 52.5024 10.0803C52.4078 10.0051 52.3016 9.95337 52.1901 9.92814C51.8234 9.83356 51.4484 9.79295 51.0735 9.8072L51.076 9.8022ZM35.5155 10.1021H34.583V12.1181H35.5121C35.7475 12.1292 35.9829 12.102 36.2121 12.0371C36.3502 11.9898 36.4689 11.883 36.5455 11.7373C36.6131 11.5362 36.6443 11.3202 36.6371 11.1036C36.6454 10.8908 36.6141 10.6784 36.5455 10.4819C36.4669 10.3328 36.3438 10.2255 36.2013 10.182C35.9762 10.1188 35.7448 10.0933 35.5138 10.1061L35.5155 10.1021ZM57.7175 6.68369L56.3175 10.8667H59.1174L57.7175 6.68369ZM51.1343 6.41882H49.666V9.08055H51.0435C51.36 9.09529 51.6767 9.0566 51.9843 8.9656C52.0791 8.93873 52.1685 8.88955 52.2473 8.82091C52.3261 8.75228 52.3928 8.66557 52.4434 8.56579C52.5477 8.31184 52.595 8.02974 52.5809 7.74718C52.591 7.46632 52.5477 7.18639 52.4543 6.92857C52.4069 6.83186 52.344 6.74741 52.2692 6.68014C52.1943 6.61288 52.1091 6.56414 52.0184 6.53676C51.7292 6.44434 51.43 6.40458 51.131 6.41882H51.1343ZM35.4596 7.00654H34.583V8.86165H35.4438C35.6448 8.86676 35.8455 8.83953 36.0405 8.78069C36.1576 8.73242 36.2555 8.63376 36.3155 8.50382C36.3755 8.32068 36.4039 8.1248 36.3988 7.9281C36.4031 7.73503 36.3748 7.54291 36.3155 7.36336C36.2555 7.23342 36.1576 7.13477 36.0405 7.0865C35.8497 7.02799 35.6532 7.00109 35.4563 7.00654H35.4596Z" fill="#2E5764"/>
</svg>
