<svg width="78" height="20" viewBox="0 0 78 20" fill="none" xmlns="http://www.w3.org/2000/svg">
<path d="M68.0135 0.000268793C73.5291 0.000268793 78 4.47715 78 10C78 15.5228 73.5291 19.9997 68.0135 19.9997C66.0913 20.0142 64.1972 19.4443 62.5062 18.3428C62.5267 18.3017 62.5552 18.2674 62.5892 18.2428C62.9709 17.9287 63.3316 17.579 63.6679 17.1968C64.5303 16.2356 65.2273 15.0794 65.7191 13.7939C66.0298 12.9818 66.2392 12.1188 66.3407 11.233C66.4425 10.3246 66.4274 9.40281 66.2959 8.50004C66.1477 7.46974 65.8586 6.47624 65.4403 5.56012C64.7536 4.05914 63.7838 2.77362 62.6091 1.80722C62.5336 1.74422 62.5037 1.69722 62.5095 1.65522C64.1997 0.55503 66.0926 -0.0141467 68.0135 0.000268793ZM55.7667 0.000268793C57.6905 -0.0142135 59.5862 0.556741 61.2781 1.66022C61.2839 1.70222 61.2449 1.74122 61.1844 1.79222C61.0051 1.94022 60.83 2.09221 60.6641 2.25721C59.4648 3.39581 58.5272 4.88537 57.9407 6.58409C57.5984 7.59101 57.4079 8.66345 57.3781 9.751C57.3582 10.5901 57.437 11.4284 57.6121 12.2409C57.779 13.0294 58.0282 13.7891 58.354 14.5019C59.0512 16.0036 60.0277 17.2902 61.2068 18.2608C61.2346 18.2814 61.2584 18.309 61.2765 18.3418C59.5849 19.4442 57.6898 20.0144 55.7667 19.9997C50.2511 19.9997 45.7794 15.5228 45.7794 10C45.7794 9.771 45.7877 9.54401 45.8026 9.31901V9.25902C46.186 4.08216 50.5 0.000268793 55.7667 0.000268793ZM61.8548 2.11621C61.9123 2.11518 61.9683 2.13814 62.0133 2.18121C63.1182 3.06377 64.0444 4.23424 64.7234 5.60612C65.1274 6.43454 65.4143 7.33818 65.5723 8.28004C65.6812 8.89784 65.7319 9.52849 65.7233 10.16C65.7007 11.2978 65.4924 12.4191 65.1101 13.4599C64.4372 15.2292 63.3679 16.7371 62.0224 17.8138C61.9841 17.8497 61.9391 17.8741 61.8913 17.8848C60.753 17.0618 59.8048 15.9069 59.1341 14.5263C58.4634 13.1458 58.0919 11.5841 58.0536 9.985C58.0914 8.39515 58.459 6.84204 59.1231 5.4675C59.7871 4.09296 60.7262 2.94079 61.8548 2.11621ZM29.8226 4.34315C29.6732 5.24313 29.5164 6.1431 29.3645 7.04308C28.304 6.52644 27.1556 6.32643 26.0171 6.46009C25.7695 6.46248 25.5253 6.53065 25.302 6.65977C25.0786 6.78888 24.8817 6.97575 24.7252 7.20707C24.6747 7.37188 24.6774 7.55355 24.7329 7.71601C24.7884 7.87847 24.8926 8.00984 25.0247 8.08405C25.9557 8.82003 27.1614 9.09502 28.0759 9.859C28.4389 10.091 28.7452 10.4335 28.9643 10.8524C29.1834 11.2714 29.3076 11.7522 29.3247 12.2469C29.3221 12.8812 29.177 13.5027 28.9046 14.0454C28.6322 14.5881 28.2429 15.0316 27.778 15.3288C26.4468 16.1673 24.9574 16.5733 23.4564 16.5068C22.2231 16.4963 20.9974 16.272 19.817 15.8408C19.929 14.9089 20.1248 13.9879 20.27 13.0589C21.5752 13.7321 22.998 14.0069 24.4123 13.8589C24.8517 13.8173 25.2701 13.6157 25.6122 13.2809C25.7296 13.1578 25.8023 12.9842 25.8147 12.7972C25.8271 12.6103 25.7782 12.425 25.6786 12.2809C25.3004 11.8587 24.8488 11.5434 24.3567 11.358C23.3197 10.9876 22.3776 10.3064 21.6184 9.37801C21.3473 8.95407 21.1927 8.43881 21.176 7.90396C21.1594 7.36912 21.2815 6.84133 21.5255 6.39409C22.0873 5.3965 22.9258 4.67289 23.8904 4.35315C25.8247 3.65283 27.8867 3.64935 29.8226 4.34315ZM35.4842 4.05816C36.436 4.02516 37.3927 4.04816 38.3428 4.04916C39.2398 8.14105 40.1576 12.2279 41.0363 16.3238C39.9968 16.3238 38.9577 16.3238 37.9188 16.3238C37.7877 15.7158 37.645 15.1109 37.5238 14.5019C36.1074 14.4669 34.6893 14.4779 33.2728 14.4949C33.0529 15.1089 32.8114 15.7148 32.5824 16.3258C31.4033 16.3258 30.225 16.3258 29.045 16.3258C30.698 12.5659 32.3545 8.80736 34.0146 5.05013C34.1615 4.73936 34.376 4.48282 34.635 4.30818C34.894 4.13354 35.1876 4.04744 35.4842 4.05916V4.05816ZM15.1743 4.04416C13.4509 8.13505 11.6693 12.1999 9.94002 16.2888C8.7526 16.3088 7.56434 16.2888 6.37194 16.2978C5.39362 12.7569 4.3904 9.22402 3.432 5.67811C2.33295 5.08127 1.18173 4.63515 0 4.34815C0 4.27615 0 4.13116 0 4.05916C1.7597 4.05916 3.5194 4.05916 5.27911 4.05916C5.72475 4.01528 6.16926 4.15874 6.53706 4.46515C6.7701 4.74349 6.91908 5.10785 6.96026 5.50012C7.3096 7.25307 7.69545 9.00002 8.03898 10.755L8.05392 10.783C8.16262 11.301 8.27132 11.8189 8.36343 12.3409C9.46124 9.58401 10.5209 6.81208 11.6087 4.05216C12.7986 4.03316 13.9861 4.05016 15.1743 4.04416ZM19.8327 4.04416C19.1598 8.13205 18.4528 12.2149 17.7583 16.2998C16.6372 16.2998 15.5179 16.2998 14.3951 16.2998C15.093 12.2149 15.7759 8.12805 16.4837 4.04516C17.5981 4.04316 18.7167 4.04916 19.8319 4.04116L19.8327 4.04416ZM35.9771 7.47406C35.4203 8.96102 34.8428 10.438 34.2644 11.9159C34.5631 11.9199 34.8619 11.9219 35.1606 11.9219H36.9537C36.6301 10.438 36.3264 8.95002 35.9771 7.47406Z" fill="#2E5764"/>
</svg>
