<svg width="22" height="20" viewBox="0 0 22 20" fill="none" xmlns="http://www.w3.org/2000/svg">
<g clip-path="url(#clip0_3841_44567)">
<path d="M11.0651 19.9247C16.4534 19.2325 20.2697 14.2295 19.589 8.75018C18.9083 3.27088 13.9884 -0.609835 8.60001 0.082361C3.21164 0.774557 -0.604671 5.77754 0.0760384 11.2568C0.756747 16.7361 5.67671 20.6169 11.0651 19.9247Z" fill="url(#paint0_radial_3841_44567)"/>
<path opacity="0.2" d="M11.6596 5.86843C11.6596 5.86843 11.1907 8.69742 12.5474 10.6682C13.904 12.6389 15.2106 12.3529 15.8421 11.2149C16.4735 10.0769 16.7548 9.17422 16.1234 8.22062C15.492 7.26703 12.1035 5.22634 11.6596 5.86843Z" fill="#100A09"/>
<path opacity="0.2" d="M17.13 5.4743C17.13 8.41136 14.1042 8.90723 10.0718 8.90723C6.03938 8.90723 2.52588 8.41772 2.52588 5.4743C2.52588 2.53088 5.79556 0.153259 9.82795 0.153259C13.8603 0.153259 17.13 2.53724 17.13 5.4743Z" fill="#AFB4DB"/>
<path opacity="0.6" d="M8.49635 0.706317C8.49635 0.706317 5.60803 0.706317 4.46396 2.61986C3.32613 4.5334 6.91465 3.91039 8.36507 3.06487C9.80923 2.21935 10.4657 0.661816 8.49635 0.706317Z" fill="#E0E2E2"/>
<path opacity="0.6" d="M11.2095 0.973352C11.2095 0.973352 10.4656 1.24036 10.378 1.77437C10.2905 2.30838 11.4283 3.1094 12.5662 2.57539C13.704 2.04137 12.4349 0.839849 11.2095 0.973352Z" fill="#E0E2E2"/>
<path d="M15.4981 4.36177C15.4981 4.36177 13.6851 3.81504 12.2221 4.62241C11.8908 5.02928 10.978 6.28802 12.3222 8.85C13.2662 10.6491 14.9542 10.8017 15.4481 10.4139C15.9044 10.0515 16.961 8.92629 16.961 8.92629C16.961 8.92629 15.8232 4.59699 15.4918 4.36177H15.4981Z" fill="#B9D7EE"/>
<path d="M14.7604 4.34271C14.7604 4.34271 12.541 4.41264 12.2221 4.8958C11.8908 5.30266 10.978 6.5614 12.3222 9.12339C13.2662 10.9225 14.9542 11.0751 15.4481 10.6873C15.9044 10.3249 16.961 9.19967 16.961 9.19967C16.961 9.19967 15.0855 4.57793 14.7541 4.34271H14.7604Z" fill="url(#paint1_radial_3841_44567)"/>
<path d="M17.2298 6.199C17.83 7.61031 17.5674 9.07884 16.6484 9.47935C15.7294 9.87986 14.4978 9.06613 13.8976 7.66117C13.2974 6.24985 13.56 4.78132 14.479 4.38081C15.398 3.98031 16.6296 4.79404 17.2298 6.199Z" fill="#676E7F"/>
<path d="M14.5916 4.7178C15.5107 4.31093 16.7423 5.13102 17.3424 6.53598C17.3674 6.5932 17.3862 6.65041 17.4112 6.70763C17.3612 6.54234 17.3049 6.37069 17.2361 6.19905C16.636 4.78773 15.4106 3.974 14.4854 4.38086C13.6039 4.76866 13.3288 6.13547 13.8352 7.48957C13.4851 6.2499 13.7852 5.06745 14.5979 4.71144L14.5916 4.7178Z" fill="#B9D7EE"/>
<path opacity="0.4" d="M16.3421 6.59314C16.6235 7.2543 16.4984 7.94089 16.067 8.12525C15.6357 8.31596 15.0605 7.93453 14.7792 7.27337C14.4978 6.61221 14.6229 5.92563 15.0543 5.74127C15.4856 5.55055 16.0608 5.93198 16.3421 6.59314Z" fill="#0D0E17"/>
<path d="M14.5979 6.65672C14.5979 6.65672 14.5979 7.57217 15.3669 7.99175C15.3669 7.99175 18.2114 7.82646 18.624 5.70948C18.624 5.70948 17.8051 4.12016 17.4487 4.23459C17.0924 4.34903 17.6113 4.90211 16.1358 5.95742C15.3169 6.29435 14.6042 6.65036 14.6042 6.65036L14.5979 6.65672Z" fill="#846C2A"/>
<path opacity="0.4" d="M18.6241 5.70952C18.6241 5.70952 18.199 4.88943 17.8302 4.46985C17.5988 4.61607 17.4613 4.87671 17.5051 5.23908C17.6739 6.56139 16.5923 7.36877 15.4295 7.22891C14.7418 7.14626 14.6918 6.82204 14.7668 6.57411C14.6605 6.62497 14.6042 6.65675 14.6042 6.65675C14.6042 6.65675 14.6042 7.5722 15.3732 7.99178C15.3732 7.99178 18.2178 7.82649 18.6304 5.70952H18.6241Z" fill="#100A09"/>
<path d="M16.561 0.680908C16.561 0.680908 18.1302 3.96126 19.493 3.57347C20.8497 3.18568 22 2.66438 22 2.66438C22 2.66438 19.9182 4.9975 20.5559 5.77309L21.1935 6.54868C21.1935 6.54868 19.9182 5.60144 19.1555 6.50418L18.3927 7.41327C18.3927 7.41327 18.1364 5.64594 17.4612 5.51244C16.1171 5.25815 14.7417 5.55694 14.7417 5.55694C14.7417 5.55694 18.1364 4.69235 16.5672 0.680908H16.561Z" fill="#F89521"/>
<path d="M17.9175 3.47174C17.9175 3.47174 18.5427 4.52069 20.0744 3.86589C20.0744 3.86589 19.3992 4.76227 19.6055 5.25814L19.8118 5.74765C19.8118 5.74765 19.0741 5.56964 18.8178 5.94472L18.5615 6.3198C18.5615 6.3198 18.3677 5.0102 17.4549 4.99749L16.5359 4.97842C16.5359 4.97842 18.2426 4.43805 17.9175 3.47174Z" fill="#F6D71F"/>
</g>
<defs>
<radialGradient id="paint0_radial_3841_44567" cx="0" cy="0" r="1" gradientUnits="userSpaceOnUse" gradientTransform="translate(9.93514 5.51967) scale(9.83404 10)">
<stop offset="0.5" stop-color="#354B5C"/>
<stop offset="0.6" stop-color="#324555"/>
<stop offset="0.8" stop-color="#2C3644"/>
<stop offset="1" stop-color="#211C27"/>
</radialGradient>
<radialGradient id="paint1_radial_3841_44567" cx="0" cy="0" r="1" gradientUnits="userSpaceOnUse" gradientTransform="translate(13.6038 5.48702) scale(4.75135 4.83153)">
<stop offset="0.5" stop-color="#354B5C"/>
<stop offset="0.6" stop-color="#324555"/>
<stop offset="0.8" stop-color="#2C3644"/>
<stop offset="1" stop-color="#211C27"/>
</radialGradient>
<clipPath id="clip0_3841_44567">
<rect width="22" height="20" fill="white" transform="translate(0 0.000671387)"/>
</clipPath>
</defs>
</svg>
