<svg width="24" height="24" viewBox="0 0 24 24" fill="none" xmlns="http://www.w3.org/2000/svg">
<g clip-path="url(#clip0_24302_96483)">
<path fill-rule="evenodd" clip-rule="evenodd" d="M19.2583 0.28691C18.0701 0.172146 14.9492 0 12 0C9.05091 0 5.92999 0.172146 4.74175 0.28691C3.39603 0.430365 2.76611 1.11895 2.76611 2.45308C2.76611 4.99223 2.86633 8.96593 3.03812 11.2899C3.1956 13.37 3.31013 15.0054 5.88704 16.569C7.73383 17.688 9.5663 18.6491 11.9571 19.8972L12 19.9259L12.043 19.8972C14.4338 18.6635 16.2806 17.688 18.1131 16.569C20.69 14.991 20.8188 13.3556 20.962 11.2899C21.1338 8.95158 21.234 4.99223 21.234 2.45308C21.234 -0.086073 20.6041 0.430365 19.2583 0.28691ZM20.1746 11.2325C20.0314 13.2122 19.9312 14.532 17.6979 15.8805C15.9513 16.942 14.4052 17.7597 12.0859 18.9647L12 19.0078L11.9141 18.9647C9.65219 17.7884 8.04878 16.942 6.30221 15.8805C4.0832 14.532 3.98299 13.2122 3.82551 11.2182C3.65372 8.90855 3.5535 4.96354 3.5535 2.43873C3.5535 -0.086073 3.86846 1.17633 4.81333 1.07591C5.98725 0.961147 9.07955 0.789002 11.9857 0.789002C14.8919 0.789002 17.9842 0.961147 19.1581 1.07591C20.103 1.17633 20.418 1.52062 20.418 2.43873C20.418 4.96354 20.3321 8.8942 20.1459 11.2182L20.1746 11.2325Z" fill="black"/>
<path fill-rule="evenodd" clip-rule="evenodd" d="M11.8711 5.95318L11.5991 6.88564C10.597 4.81989 9.39443 3.74398 7.93418 3.74398C6.47393 3.74398 5.60064 4.7912 5.37158 5.13549C5.77243 4.11696 6.84615 3.22754 8.26345 3.22754C9.68075 3.22754 11.3128 4.76251 11.8854 5.95318H11.8711Z" fill="black"/>
<path fill-rule="evenodd" clip-rule="evenodd" d="M4.58417 8.0622C4.58417 11.4908 5.5863 13.1405 7.07518 13.1405C8.56407 13.1405 8.26343 12.7101 8.26343 11.9929C8.26343 11.2756 8.00574 10.9169 7.89121 10.7161C7.93415 10.9169 7.96279 11.1321 7.96279 11.3904C7.96279 11.9785 7.56193 12.1794 7.23266 12.1794C6.24485 12.1794 5.25703 10.2571 4.97071 8.04785C4.84186 8.04785 4.55554 8.04785 4.56985 8.04785L4.58417 8.0622Z" fill="black"/>
<path fill-rule="evenodd" clip-rule="evenodd" d="M15.7366 3.22754C17.1539 3.22754 18.2133 4.11696 18.6284 5.13549C18.3994 4.80554 17.6263 3.74398 16.0659 3.74398C14.5054 3.74398 13.4174 4.81989 12.4009 6.88564L12.1289 5.95318C12.7016 4.76251 13.8039 3.22754 15.7509 3.22754H15.7366Z" fill="black"/>
<path fill-rule="evenodd" clip-rule="evenodd" d="M19.0006 8.06201C18.7286 10.2569 17.7264 12.1935 16.7386 12.1935C15.7508 12.1935 16.0228 12.007 16.0228 11.4045C16.0228 10.802 16.0514 10.9311 16.0944 10.7303C15.9942 10.9168 15.7222 11.4045 15.7222 12.007C15.7222 12.6095 16.2089 13.1547 16.9104 13.1547C18.3993 13.1547 19.4014 11.5049 19.4014 8.07636C19.4014 8.07636 19.1294 8.07636 19.0006 8.07636V8.06201Z" fill="black"/>
<path fill-rule="evenodd" clip-rule="evenodd" d="M16.888 4.7998C15.6139 4.7998 14.3684 5.81833 13.6382 8.15665L14.125 8.4866L13.8959 9.63423L12.994 10.0072L12.8365 11.1405L13.2803 10.5954L13.7528 10.3945L13.6096 11.1262L12.7936 11.4561L12.5073 13.4214L12.7077 14.0526L11.9203 14.3682L11.1329 14.0526L11.3333 13.4214L11.047 11.4561L10.231 11.1262L10.0878 10.3945L10.5603 10.5954L11.0041 11.1405L10.8323 10.0072L9.93034 9.63423L9.70128 8.4866L10.188 8.15665C9.44359 5.81833 8.19809 4.7998 6.93826 4.7998C5.67844 4.7998 4.71926 6.29174 4.80515 7.52545H5.17737C5.49233 9.26125 6.37993 10.7388 7.03848 10.7388C7.69702 10.7388 7.35343 10.581 7.35343 10.3228C7.35343 9.70596 6.93826 9.06041 6.93826 7.89843C6.93826 6.73645 7.11006 7.02336 7.52523 7.02336C7.94039 7.02336 8.02629 7.31027 8.15514 7.62587C7.91176 8.50094 7.94039 9.23256 8.64189 9.54816C8.98548 9.70596 9.40064 9.89245 9.40064 9.89245C9.40064 9.89245 9.84445 11.7717 9.87308 11.9152C9.90171 12.0443 9.97329 12.2021 10.0306 12.3168C10.1165 12.4603 10.6891 13.4645 10.6891 13.4645C10.6891 13.4645 10.8895 14.4543 10.9325 14.6695C11.047 15.2433 11.4479 15.2433 11.906 15.2433C12.3641 15.2433 12.7649 15.2433 12.8795 14.6695C12.9224 14.4543 13.1228 13.4645 13.1228 13.4645C13.1228 13.4645 13.7098 12.4603 13.7814 12.3168C13.8387 12.2164 13.9102 12.0443 13.9389 11.9152C13.9675 11.7861 14.4113 9.89245 14.4113 9.89245C14.4113 9.89245 14.8265 9.70596 15.1701 9.54816C15.8716 9.23256 15.9002 8.50094 15.6568 7.62587C15.7857 7.31027 16.0147 7.02336 16.301 7.02336C16.7019 7.02336 16.888 7.36765 16.888 7.89843C16.888 9.07476 16.4728 9.72031 16.4728 10.3228C16.4728 10.9253 16.573 10.7388 16.7878 10.7388C17.4463 10.7388 18.3339 9.26125 18.6489 7.52545H19.0211C19.107 6.29174 18.4485 4.7998 16.888 4.7998ZM8.89958 9.21822C8.39851 9.00303 8.35556 8.41487 8.51304 7.64021L9.05706 8.4866L9.25748 9.36167C9.25748 9.36167 9.05706 9.2756 8.89958 9.20387V9.21822ZM14.9124 9.21822C14.7406 9.28994 14.5545 9.37602 14.5545 9.37602L14.7549 8.50094L15.2989 7.65456C15.4707 8.42921 15.4134 9.01738 14.9267 9.23256L14.9124 9.21822Z" fill="black"/>
<path fill-rule="evenodd" clip-rule="evenodd" d="M10.9262 22.4935V23.4403H12.2003C12.9161 23.4403 13.1738 23.1534 13.1738 22.7661C13.1738 22.3787 13.045 22.0918 12.2003 22.0918H10.0386V21.561H12.3005C13.7321 21.561 14.0757 22.1635 14.0757 22.7661C14.0757 23.3686 13.589 23.9711 12.3005 23.9711H10.0529V22.4935H10.9262Z" fill="black"/>
<path fill-rule="evenodd" clip-rule="evenodd" d="M1.36303 22.4935V23.4403H2.63717C3.35298 23.4403 3.61067 23.1534 3.61067 22.7661C3.61067 22.3787 3.48183 22.0918 2.63717 22.0918H0.489746V21.561H2.7517C4.18332 21.561 4.52691 22.1635 4.52691 22.7661C4.52691 23.3686 4.04016 23.9711 2.7517 23.9711H0.489746V22.4935H1.36303Z" fill="black"/>
<path fill-rule="evenodd" clip-rule="evenodd" d="M16.6669 22.4793V23.0101H17.9411V23.4261H16.6669C15.9511 23.4261 15.6791 23.1392 15.6791 22.7519C15.6791 22.3646 16.037 22.0777 16.624 22.0777H18.8143V21.5469H16.5953C15.45 21.5469 14.7915 21.9055 14.7915 22.7519C14.7915 23.5983 15.4357 23.9569 16.5667 23.9569H18.8287V22.4793H16.6812H16.6669Z" fill="black"/>
<path fill-rule="evenodd" clip-rule="evenodd" d="M20.747 22.0777H23.4813V21.5469H19.8164V23.9569H23.51V23.4261H20.747V23.0101H23.3382V22.4793H20.747V22.0777Z" fill="black"/>
<path fill-rule="evenodd" clip-rule="evenodd" d="M7.26108 24C5.7722 24 5.21387 23.5123 5.21387 22.752C5.21387 21.9917 5.80083 21.5039 7.26108 21.5039C8.72133 21.5039 9.30829 21.9917 9.30829 22.752C9.30829 23.5123 8.72133 24 7.26108 24ZM8.42069 22.752C8.42069 22.3359 8.01984 22.0347 7.26108 22.0347C6.50232 22.0347 6.10147 22.3359 6.10147 22.752C6.10147 23.168 6.45937 23.4692 7.26108 23.4692C8.06279 23.4692 8.42069 23.1536 8.42069 22.752Z" fill="black"/>
</g>
<defs>
<clipPath id="clip0_24302_96483">
<rect width="24" height="24" fill="white"/>
</clipPath>
</defs>
</svg>
