<svg width="30" height="30" viewBox="0 0 30 30" fill="none" xmlns="http://www.w3.org/2000/svg">
<g clip-path="url(#clip0_20301_93089)">
<circle cx="15" cy="15" r="14.5" fill="url(#paint0_linear_20301_93089)" stroke="white"/>
<path fill-rule="evenodd" clip-rule="evenodd" d="M14.8523 10.8045L14.5002 11.9964C13.203 9.35579 11.6463 7.98047 9.75612 7.98047C7.8659 7.98047 6.73547 9.31911 6.43896 9.75922C6.95785 8.45724 8.34772 7.32031 10.1823 7.32031C12.017 7.32031 14.1296 9.28244 14.8708 10.8045H14.8523Z" fill="white"/>
<path fill-rule="evenodd" clip-rule="evenodd" d="M5.4191 13.5C5.4191 17.8827 6.71632 19.9915 8.6436 19.9915C10.5709 19.9915 10.1817 19.4414 10.1817 18.5245C10.1817 17.6077 9.84816 17.1492 9.6999 16.8925C9.7555 17.1492 9.79256 17.4243 9.79256 17.7544C9.79256 18.5062 9.27368 18.7629 8.84745 18.7629C7.56877 18.7629 6.29009 16.3057 5.91946 13.4817C5.75267 13.4817 5.38204 13.4817 5.40057 13.4817L5.4191 13.5Z" fill="white"/>
<path fill-rule="evenodd" clip-rule="evenodd" d="M19.8555 7.32031C21.6901 7.32031 23.0615 8.45724 23.5989 9.75922C23.3024 9.33745 22.3017 7.98047 20.2817 7.98047C18.2618 7.98047 16.8534 9.35579 15.5376 11.9964L15.1855 10.8045C15.9268 9.28244 17.3537 7.32031 19.874 7.32031H19.8555Z" fill="white"/>
<path fill-rule="evenodd" clip-rule="evenodd" d="M24.0811 13.5C23.729 16.3057 22.4318 18.7812 21.1531 18.7812C19.8745 18.7812 20.2266 18.5428 20.2266 17.7727C20.2266 17.0025 20.2636 17.1675 20.3192 16.9108C20.1895 17.1492 19.8374 17.7727 19.8374 18.5428C19.8374 19.313 20.4675 20.0099 21.3755 20.0099C23.3028 20.0099 24.6 17.901 24.6 13.5183C24.6 13.5183 24.2479 13.5183 24.0811 13.5183V13.5Z" fill="white"/>
<path fill-rule="evenodd" clip-rule="evenodd" d="M21.3463 9.33008C19.697 9.33008 18.0848 10.632 17.1396 13.6211L17.7697 14.0428L17.4732 15.5099L16.3057 15.9866L16.1019 17.4353L16.6764 16.7385L17.2879 16.4818L17.1026 17.417L16.0463 17.8387L15.6756 20.351L15.9351 21.1578L14.9159 21.5613L13.8966 21.1578L14.1561 20.351L13.7854 17.8387L12.7291 17.417L12.5438 16.4818L13.1554 16.7385L13.7298 17.4353L13.5075 15.9866L12.34 15.5099L12.0435 14.0428L12.6735 13.6211C11.7099 10.632 10.0976 9.33008 8.46686 9.33008C6.83608 9.33008 5.59446 11.2372 5.70565 12.8142H6.18747C6.59517 15.0331 7.74413 16.9219 8.59658 16.9219C9.44904 16.9219 9.00428 16.7201 9.00428 16.3901C9.00428 15.6015 8.46686 14.7764 8.46686 13.291C8.46686 11.8057 8.68924 12.1724 9.22666 12.1724C9.76407 12.1724 9.87526 12.5392 10.042 12.9426C9.72701 14.0612 9.76407 14.9964 10.6721 15.3998C11.1169 15.6015 11.6543 15.8399 11.6543 15.8399C11.6543 15.8399 12.2288 18.2422 12.2658 18.4255C12.3029 18.5906 12.3956 18.7923 12.4697 18.939C12.5809 19.1224 13.3221 20.406 13.3221 20.406C13.3221 20.406 13.5816 21.6713 13.6372 21.9464C13.7854 22.6799 14.3043 22.6799 14.8973 22.6799C15.4903 22.6799 16.0092 22.6799 16.1575 21.9464C16.2131 21.6713 16.4725 20.406 16.4725 20.406C16.4725 20.406 17.2323 19.1224 17.325 18.939C17.3991 18.8106 17.4917 18.5906 17.5288 18.4255C17.5659 18.2605 18.1404 15.8399 18.1404 15.8399C18.1404 15.8399 18.6778 15.6015 19.1225 15.3998C20.0306 14.9964 20.0676 14.0612 19.7526 12.9426C19.9194 12.5392 20.2159 12.1724 20.5865 12.1724C21.1054 12.1724 21.3463 12.6125 21.3463 13.291C21.3463 14.7947 20.8089 15.6199 20.8089 16.3901C20.8089 17.1602 20.9386 16.9219 21.2166 16.9219C22.0691 16.9219 23.218 15.0331 23.6257 12.8142H24.1075C24.2187 11.2372 23.3663 9.33008 21.3463 9.33008ZM11.0057 14.9781C10.3571 14.703 10.3015 13.9512 10.5053 12.9609L11.2095 14.0428L11.469 15.1614C11.469 15.1614 11.2095 15.0514 11.0057 14.9597V14.9781ZM18.789 14.9781C18.5666 15.0698 18.3257 15.1798 18.3257 15.1798L18.5851 14.0612L19.2893 12.9793C19.5117 13.9695 19.4376 14.7213 18.8075 14.9964L18.789 14.9781Z" fill="white"/>
</g>
<defs>
<linearGradient id="paint0_linear_20301_93089" x1="15" y1="0" x2="15" y2="30" gradientUnits="userSpaceOnUse">
<stop stop-color="#4F4F4F"/>
<stop offset="1"/>
</linearGradient>
<clipPath id="clip0_20301_93089">
<rect width="30" height="30" fill="white"/>
</clipPath>
</defs>
</svg>
