<svg width="49" height="33" viewBox="0 0 49 33" fill="none" xmlns="http://www.w3.org/2000/svg">
<g clip-path="url(#clip0_26301_35113)">
<path d="M35.3641 2.06673C32.3322 1.07246 28.5739 0.495605 24.4998 0.495605C20.4257 0.495605 16.6674 1.07272 13.6356 2.06673C5.58213 4.69568 0.0551758 10.1464 0.0551758 16.4304C0.0551758 25.2797 10.9828 32.4936 24.4998 32.4936C37.9855 32.4936 48.9444 25.3117 48.9444 16.4304C48.9444 10.1464 43.4175 4.69568 35.3641 2.06673ZM24.4998 25.6002C22.4787 25.6002 20.8364 21.5924 20.7417 16.5268C21.9418 16.6549 23.205 16.687 24.4998 16.687C25.7946 16.687 27.0581 16.6229 28.2582 16.5268C28.1635 21.5924 26.5212 25.6002 24.4998 25.6002ZM20.9942 12.5831C21.5309 9.02421 22.8891 6.52345 24.4998 6.52345C26.079 6.52345 27.4369 9.02421 28.0054 12.5831C26.9 12.6792 25.6999 12.7433 24.4998 12.7433C23.2997 12.7433 22.1312 12.6792 20.9942 12.5831ZM30.153 12.2946C29.332 6.74778 27.1212 2.73999 24.4998 2.73999C21.8786 2.73999 19.6679 6.71573 18.8466 12.2944C13.8884 11.4929 10.4141 9.72952 10.4141 7.64537C10.4141 4.82387 16.7308 2.5477 24.4998 2.5477C32.2691 2.5477 38.5855 4.82387 38.5855 7.64537C38.5855 9.72952 35.1115 11.5252 30.153 12.2946ZM3.62416 15.853C3.62416 13.1279 4.66615 10.5948 6.46655 8.38273C6.43499 8.54296 6.43499 8.7032 6.43499 8.83139C6.43499 12.2621 11.4879 15.1477 18.5306 16.2378V17.0072C18.5306 23.3555 20.2679 28.7419 22.6681 30.6017C11.9932 29.9605 3.62389 23.6124 3.62389 15.8532L3.62416 15.853ZM26.3318 30.6337C28.7317 28.7742 30.469 23.3876 30.469 17.0392V16.2701C37.5117 15.2118 42.5646 12.2941 42.5646 8.86344C42.5646 8.7032 42.5646 8.54296 42.5331 8.41477C44.3335 10.5948 45.3757 13.1599 45.3757 15.8853C45.3757 23.6122 37.0064 29.9605 26.3315 30.6337H26.3318Z" fill="black"/>
</g>
<defs>
<clipPath id="clip0_26301_35113">
<rect width="49" height="33" fill="white"/>
</clipPath>
</defs>
</svg>
