<svg width="30" height="30" viewBox="0 0 30 30" fill="none" xmlns="http://www.w3.org/2000/svg">
<g clip-path="url(#clip0_20301_92957)">
<circle cx="15" cy="15" r="14.5" fill="url(#paint0_linear_20301_92957)" stroke="white"/>
<g clip-path="url(#clip1_20301_92957)">
<path d="M19.5228 9.22659C18.2606 8.82889 16.6958 8.59814 14.9997 8.59814C13.3036 8.59814 11.7388 8.82899 10.4766 9.22659C7.12377 10.2782 4.82275 12.4585 4.82275 14.972C4.82275 18.5118 9.37222 21.3973 14.9997 21.3973C20.6141 21.3973 25.1767 18.5246 25.1767 14.972C25.1767 12.4585 22.8756 10.2782 19.5228 9.22659ZM14.9997 18.64C14.1583 18.64 13.4745 17.0369 13.4351 15.0106C13.9347 15.0619 14.4606 15.0747 14.9997 15.0747C15.5388 15.0747 16.0648 15.0491 16.5644 15.0106C16.525 17.0369 15.8413 18.64 14.9997 18.64ZM13.5402 13.4331C13.7637 12.0096 14.3291 11.0093 14.9997 11.0093C15.6572 11.0093 16.2225 12.0096 16.4592 13.4331C15.999 13.4716 15.4993 13.4972 14.9997 13.4972C14.5001 13.4972 14.0136 13.4716 13.5402 13.4331ZM17.3533 13.3178C17.0115 11.099 16.0911 9.4959 14.9997 9.4959C13.9084 9.4959 12.988 11.0862 12.6461 13.3177C10.5819 12.9971 9.13544 12.2917 9.13544 11.4581C9.13544 10.3294 11.7652 9.41898 14.9997 9.41898C18.2343 9.41898 20.864 10.3294 20.864 11.4581C20.864 12.2917 19.4176 13.01 17.3533 13.3178ZM6.30861 14.7411C6.30861 13.6511 6.74242 12.6378 7.49198 11.753C7.47884 11.8171 7.47884 11.8812 7.47884 11.9325C7.47884 13.3047 9.5825 14.459 12.5146 14.895V15.2028C12.5146 17.7421 13.2378 19.8967 14.2371 20.6406C9.79289 20.3841 6.30851 17.8449 6.30851 14.7412L6.30861 14.7411ZM15.7624 20.6534C16.7616 19.9096 17.4848 17.7549 17.4848 15.2156V14.9079C20.4169 14.4846 22.5206 13.3175 22.5206 11.9453C22.5206 11.8812 22.5206 11.8171 22.5074 11.7658C23.257 12.6378 23.6909 13.6639 23.6909 14.754C23.6909 17.8448 20.2065 20.3841 15.7623 20.6534H15.7624Z" fill="white"/>
</g>
</g>
<defs>
<linearGradient id="paint0_linear_20301_92957" x1="15" y1="0" x2="15" y2="30" gradientUnits="userSpaceOnUse">
<stop stop-color="#4F4F4F"/>
<stop offset="1"/>
</linearGradient>
<clipPath id="clip0_20301_92957">
<rect width="30" height="30" fill="white"/>
</clipPath>
<clipPath id="clip1_20301_92957">
<rect width="20.4" height="13.2" fill="white" transform="translate(4.7998 8.3999)"/>
</clipPath>
</defs>
</svg>
