<svg width="41" height="40" viewBox="0 0 41 40" fill="none" xmlns="http://www.w3.org/2000/svg">
<path d="M30.6111 10C32.191 10 33.5 11.2946 33.5 12.8571V14.2857H7.5V12.8571C7.5 11.2946 8.76389 10 10.3889 10H30.6111ZM33.5 27.1429C33.5 28.75 32.191 30 30.6111 30H10.3889C8.76389 30 7.5 28.75 7.5 27.1429V18.5714H33.5V27.1429ZM12.5556 24.2857C12.1493 24.2857 11.8333 24.6429 11.8333 25C11.8333 25.4018 12.1493 25.7143 12.5556 25.7143H15.4444C15.8056 25.7143 16.1667 25.4018 16.1667 25C16.1667 24.6429 15.8056 24.2857 15.4444 24.2857H12.5556ZM18.3333 25.7143H24.1111C24.4722 25.7143 24.8333 25.4018 24.8333 25C24.8333 24.6429 24.4722 24.2857 24.1111 24.2857H18.3333C17.9271 24.2857 17.6111 24.6429 17.6111 25C17.6111 25.4018 17.9271 25.7143 18.3333 25.7143Z" fill="#D5E6FF"/>
</svg>
