<svg width="41" height="40" viewBox="0 0 41 40" fill="none" xmlns="http://www.w3.org/2000/svg">
<path d="M30.1 14.998C31.4125 14.998 32.5 16.1304 32.5 17.497V25.033C32.5 26.3997 31.4125 27.493 30.1 27.493H28.9V29.6406C28.9 29.9529 28.525 30.1091 28.2625 29.9139L25.15 27.493H20.4625C19.15 27.493 18.1 26.3997 18.1 24.994V23.7445H21.7C23.65 23.7445 25.3 22.0655 25.3 19.996V14.998H30.1ZM24.1 19.996C24.1 21.4017 23.0125 22.495 21.7 22.495L15.775 22.534L12.6625 24.9549C12.4375 25.1111 12.1 24.9549 12.1 24.6426V22.534L10.9 22.495C9.55 22.495 8.5 21.4017 8.5 19.996V12.499C8.5 11.1324 9.55 10 10.9 10H21.7C23.0125 10 24.1 11.1324 24.1 12.499V19.996ZM16.3 20.5036C16.825 20.5036 17.2 20.0741 17.2 19.5274C17.2 19.0198 16.825 18.5903 16.3 18.5903C15.775 18.5903 15.4 19.0198 15.4 19.5274C15.4 20.0741 15.775 20.5036 16.3 20.5036ZM18.2875 16.2084C18.925 15.818 19.3 15.1542 19.3 14.4513C19.3 13.2799 18.4 12.3428 17.275 12.3428H15.775C14.65 12.3428 13.7875 13.2799 13.7875 14.4513C13.7875 14.8028 14.0875 15.1542 14.4625 15.1542C14.8375 15.1542 15.1375 14.8028 15.1375 14.4513C15.1375 14.0609 15.4375 13.7875 15.775 13.7875H17.275C17.6125 13.7875 17.9125 14.0609 17.9125 14.4513C17.9125 14.6856 17.8 14.8809 17.575 14.998L15.9625 16.0132C15.7375 16.1694 15.625 16.4037 15.625 16.638V17.1065C15.625 17.497 15.8875 17.8484 16.2625 17.8484C16.6375 17.8484 16.9375 17.497 16.9375 17.1065V17.0675L18.2875 16.2084Z" fill="#D5E6FF"/>
</svg>
